OpanSansBold.ufo
<glyph name="exclam" format="1">
  <advance width="279"/>
  <unicode hex="0021"/>
  <outline>
    <contour>
      <point x="70" y="690" type="line"/>
      <point x="81" y="227" type="line"/>
      <point x="201" y="227" type="line"/>
      <point x="210" y="690" type="line"/>
    </contour>
    <contour>
      <point x="134" y="136"/>
      <point x="64" y="124"/>
      <point x="64" y="91" type="curve" smooth="yes"/>
      <point x="64" y="58"/>
      <point x="76" y="-4"/>
      <point x="111" y="-4" type="curve" smooth="yes"/>
      <point x="145" y="-4"/>
      <point x="216" y="7"/>
      <point x="216" y="41" type="curve" smooth="yes"/>
      <point x="216" y="75"/>
      <point x="203" y="136"/>
      <point x="168" y="136" type="curve" smooth="yes"/>
    </contour>
  </outline>
</glyph>
<glyph name="quotedbl" format="1">
  <advance width="414"/>
  <unicode hex="0022"/>
  <outline>
    <contour>
      <point x="239" y="711" type="line"/>
      <point x="252" y="429" type="line"/>
      <point x="331" y="429" type="line"/>
      <point x="358" y="568" type="line"/>
      <point x="364" y="711" type="line"/>
    </contour>
    <contour>
      <point x="50" y="711" type="line"/>
      <point x="63" y="429" type="line"/>
      <point x="142" y="429" type="line"/>
      <point x="169" y="568" type="line"/>
      <point x="175" y="711" type="line"/>
    </contour>
  </outline>
</glyph>
<glyph name="numbersign" format="1">
  <advance width="650"/>
  <unicode hex="0023"/>
  <outline>
    <contour>
      <point x="460" y="691" type="line"/>
      <point x="415" y="497" type="line"/>
      <point x="305" y="497" type="line"/>
      <point x="350" y="691" type="line"/>
      <point x="258" y="691" type="line"/>
      <point x="213" y="497" type="line"/>
      <point x="79" y="497" type="line"/>
      <point x="79" y="410" type="line"/>
      <point x="193" y="410" type="line"/>
      <point x="162" y="278" type="line"/>
      <point x="30" y="278" type="line"/>
      <point x="30" y="192" type="line"/>
      <point x="143" y="192" type="line"/>
      <point x="98" y="0" type="line"/>
      <point x="191" y="0" type="line"/>
      <point x="235" y="192" type="line"/>
      <point x="345" y="192" type="line"/>
      <point x="301" y="0" type="line"/>
      <point x="393" y="0" type="line"/>
      <point x="438" y="192" type="line"/>
      <point x="569" y="192" type="line"/>
      <point x="569" y="278" type="line"/>
      <point x="457" y="278" type="line"/>
      <point x="487" y="410" type="line"/>
      <point x="618" y="410" type="line"/>
      <point x="618" y="497" type="line"/>
      <point x="508" y="497" type="line"/>
      <point x="553" y="691" type="line"/>
    </contour>
    <contour>
      <point x="365" y="278" type="line"/>
      <point x="255" y="278" type="line"/>
      <point x="285" y="410" type="line"/>
      <point x="395" y="410" type="line"/>
    </contour>
  </outline>
</glyph>
<glyph name="dollar" format="1">
  <advance width="604"/>
  <unicode hex="0024"/>
  <outline>
    <contour>
      <point x="0" y="10" type="line"/>
      <point x="0" y="0" type="line"/>
      <point x="604" y="0" type="line"/>
      <point x="604" y="10" type="line"/>
    </contour>
  </outline>
</glyph>
<glyph name="percent" format="1">
  <advance width="929"/>
  <unicode hex="0025"/>
  <outline>
    <contour>
      <point x="235" y="21" type="line"/>
      <point x="332" y="6" type="line"/>
      <point x="690" y="664" type="line"/>
      <point x="593" y="679" type="line"/>
    </contour>
    <contour>
      <point x="107" y="702"/>
      <point x="45" y="629"/>
      <point x="44" y="514" type="curve" smooth="yes"/>
      <point x="44" y="513"/>
      <point x="44" y="498"/>
      <point x="44" y="497" type="curve" smooth="yes"/>
      <point x="44" y="382"/>
      <point x="108" y="308"/>
      <point x="221" y="308" type="curve" smooth="yes"/>
      <point x="336" y="308"/>
      <point x="398" y="381"/>
      <point x="398" y="497" type="curve" smooth="yes"/>
      <point x="398" y="498"/>
      <point x="398" y="514"/>
      <point x="398" y="515" type="curve" smooth="yes"/>
      <point x="397" y="630"/>
      <point x="336" y="702"/>
      <point x="221" y="702" type="curve" smooth="yes"/>
    </contour>
    <contour>
      <point x="274" y="618"/>
      <point x="288" y="570"/>
      <point x="288" y="513" type="curve" smooth="yes"/>
      <point x="288" y="497" type="line" smooth="yes"/>
      <point x="288" y="438"/>
      <point x="274" y="393"/>
      <point x="221" y="393" type="curve" smooth="yes"/>
      <point x="178" y="393"/>
      <point x="154" y="423"/>
      <point x="154" y="497" type="curve" smooth="yes"/>
      <point x="154" y="513" type="line" smooth="yes"/>
      <point x="154" y="571"/>
      <point x="169" y="618"/>
      <point x="221" y="618" type="curve" smooth="yes"/>
    </contour>
    <contour>
      <point x="763" y="297"/>
      <point x="776" y="249"/>
      <point x="776" y="193" type="curve" smooth="yes"/>
      <point x="776" y="192"/>
      <point x="776" y="177"/>
      <point x="776" y="176" type="curve" smooth="yes"/>
      <point x="776" y="116"/>
      <point x="764" y="71"/>
      <point x="709" y="71" type="curve" smooth="yes"/>
      <point x="667" y="71"/>
      <point x="642" y="103"/>
      <point x="642" y="176" type="curve" smooth="yes"/>
      <point x="642" y="177"/>
      <point x="642" y="193"/>
      <point x="642" y="194" type="curve" smooth="yes"/>
      <point x="643" y="251"/>
      <point x="657" y="297"/>
      <point x="709" y="297" type="curve" smooth="yes"/>
    </contour>
    <contour>
      <point x="595" y="382"/>
      <point x="533" y="308"/>
      <point x="532" y="193" type="curve" smooth="yes"/>
      <point x="532" y="193"/>
      <point x="532" y="177"/>
      <point x="532" y="176" type="curve" smooth="yes"/>
      <point x="532" y="61"/>
      <point x="596" y="-13"/>
      <point x="709" y="-13" type="curve" smooth="yes"/>
      <point x="824" y="-13"/>
      <point x="886" y="61"/>
      <point x="886" y="176" type="curve" smooth="yes"/>
      <point x="886" y="177"/>
      <point x="886" y="193"/>
      <point x="886" y="194" type="curve" smooth="yes"/>
      <point x="885" y="308"/>
      <point x="823" y="382"/>
      <point x="709" y="382" type="curve" smooth="yes"/>
    </contour>
  </outline>
</glyph>
<glyph name="ampersand" format="1">
  <advance width="677"/>
  <unicode hex="0026"/>
  <outline>
    <contour>
      <point x="187" y="702"/>
      <point x="106" y="645"/>
      <point x="106" y="532" type="curve" smooth="yes"/>
      <point x="106" y="482"/>
      <point x="134" y="433"/>
      <point x="175" y="381" type="curve"/>
      <point x="72" y="315"/>
      <point x="39" y="268"/>
      <point x="39" y="186" type="curve" smooth="yes"/>
      <point x="39" y="55"/>
      <point x="146" y="-12"/>
      <point x="282" y="-12" type="curve" smooth="yes"/>
      <point x="362" y="-12"/>
      <point x="414" y="10"/>
      <point x="463" y="42" type="curve"/>
      <point x="499" y="0" type="line"/>
      <point x="658" y="0" type="line"/>
      <point x="554" y="124" type="line"/>
      <point x="596" y="175"/>
      <point x="623" y="239"/>
      <point x="633" y="318" type="curve"/>
      <point x="524" y="333" type="line"/>
      <point x="517" y="283"/>
      <point x="500" y="243"/>
      <point x="479" y="212" type="curve"/>
      <point x="348" y="366" type="line"/>
      <point x="444" y="430"/>
      <point x="484" y="472"/>
      <point x="484" y="554" type="curve" smooth="yes"/>
      <point x="484" y="647"/>
      <point x="404" y="702"/>
      <point x="304" y="702" type="curve" smooth="yes"/>
    </contour>
    <contour>
      <point x="393" y="125" type="line"/>
      <point x="362" y="104"/>
      <point x="327" y="92"/>
      <point x="286" y="92" type="curve" smooth="yes"/>
      <point x="223" y="92"/>
      <point x="174" y="127"/>
      <point x="174" y="188" type="curve" smooth="yes"/>
      <point x="174" y="232"/>
      <point x="191" y="265"/>
      <point x="244" y="297" type="curve"/>
    </contour>
    <contour>
      <point x="335" y="603"/>
      <point x="364" y="582"/>
      <point x="364" y="550" type="curve" smooth="yes"/>
      <point x="364" y="515"/>
      <point x="350" y="501"/>
      <point x="326" y="482" type="curve" smooth="yes"/>
      <point x="318" y="475"/>
      <point x="291" y="456"/>
      <point x="279" y="448" type="curve"/>
      <point x="250" y="483"/>
      <point x="234" y="509"/>
      <point x="234" y="536" type="curve" smooth="yes"/>
      <point x="234" y="577"/>
      <point x="259" y="603"/>
      <point x="302" y="603" type="curve" smooth="yes"/>
    </contour>
  </outline>
</glyph>
<glyph name="parenleft" format="1">
  <advance width="389"/>
  <unicode hex="0028"/>
  <outline>
    <contour>
      <point x="146" y="657"/>
      <point x="59" y="489"/>
      <point x="57" y="286" type="curve" smooth="yes"/>
      <point x="57" y="284"/>
      <point x="57" y="278"/>
      <point x="57" y="276" type="curve" smooth="yes"/>
      <point x="57" y="71"/>
      <point x="144" y="-98"/>
      <point x="274" y="-204" type="curve"/>
      <point x="372" y="-176" type="line"/>
      <point x="252" y="-69"/>
      <point x="177" y="74"/>
      <point x="177" y="275" type="curve" smooth="yes"/>
      <point x="177" y="277"/>
      <point x="177" y="284"/>
      <point x="177" y="286" type="curve" smooth="yes"/>
      <point x="179" y="484"/>
      <point x="254" y="628"/>
      <point x="372" y="732" type="curve"/>
      <point x="274" y="761" type="line"/>
    </contour>
  </outline>
</glyph>
<glyph name="parenright" format="1">
  <advance width="389"/>
  <unicode hex="0029"/>
  <outline>
    <contour>
      <point x="0" y="10" type="line"/>
      <point x="0" y="0" type="line"/>
      <point x="389" y="0" type="line"/>
      <point x="389" y="10" type="line"/>
    </contour>
  </outline>
</glyph>
<glyph name="asterisk" format="1">
  <advance width="444"/>
  <unicode hex="002A"/>
  <outline>
    <contour>
      <point x="0" y="10" type="line"/>
      <point x="0" y="0" type="line"/>
      <point x="444" y="0" type="line"/>
      <point x="444" y="10" type="line"/>
    </contour>
  </outline>
</glyph>
<glyph name="plus" format="1">
  <advance width="636"/>
  <unicode hex="002B"/>
  <outline>
    <contour>
      <point x="261" y="576" type="line"/>
      <point x="261" y="359" type="line"/>
      <point x="50" y="359" type="line"/>
      <point x="50" y="250" type="line"/>
      <point x="261" y="250" type="line"/>
      <point x="261" y="29" type="line"/>
      <point x="375" y="29" type="line"/>
      <point x="375" y="250" type="line"/>
      <point x="585" y="250" type="line"/>
      <point x="585" y="359" type="line"/>
      <point x="375" y="359" type="line"/>
      <point x="375" y="576" type="line"/>
    </contour>
  </outline>
</glyph>
<glyph name="comma" format="1">
  <advance width="274"/>
  <unicode hex="002C"/>
  <outline>
    <contour>
      <point x="133" y="138"/>
      <point x="64" y="124"/>
      <point x="64" y="91" type="curve" smooth="yes"/>
      <point x="64" y="63"/>
      <point x="74" y="3"/>
      <point x="100" y="1" type="curve"/>
      <point x="98" y="-24"/>
      <point x="67" y="-124"/>
      <point x="55" y="-145" type="curve"/>
      <point x="145" y="-145" type="line"/>
      <point x="163" y="-117"/>
      <point x="215" y="-8"/>
      <point x="215" y="39" type="curve" smooth="yes"/>
      <point x="215" y="74"/>
      <point x="199" y="138"/>
      <point x="168" y="138" type="curve" smooth="yes"/>
    </contour>
  </outline>
</glyph>
<glyph name="hyphen" format="1">
  <advance width="386"/>
  <unicode hex="002D"/>
  <outline>
    <contour>
      <point x="46" y="335" type="line"/>
      <point x="46" y="217" type="line"/>
      <point x="339" y="217" type="line"/>
      <point x="339" y="335" type="line"/>
    </contour>
    <contour>
      <point x="190" y="278" type="move" name="_mid"/>
    </contour>
  </outline>
</glyph>
<glyph name="period" format="1">
  <advance width="287"/>
  <unicode hex="002E"/>
  <outline>
    <contour>
      <point x="136" y="139"/>
      <point x="66" y="126"/>
      <point x="66" y="93" type="curve" smooth="yes"/>
      <point x="66" y="60"/>
      <point x="78" y="-4"/>
      <point x="113" y="-4" type="curve" smooth="yes"/>
      <point x="147" y="-4"/>
      <point x="218" y="9"/>
      <point x="218" y="43" type="curve" smooth="yes"/>
      <point x="218" y="77"/>
      <point x="205" y="139"/>
      <point x="170" y="139" type="curve" smooth="yes"/>
    </contour>
  </outline>
</glyph>
<glyph name="slash" format="1">
  <advance width="464"/>
  <unicode hex="002F"/>
  <outline>
    <contour>
      <point x="300" y="730" type="line"/>
      <point x="-6" y="-112" type="line"/>
      <point x="124" y="-112" type="line"/>
      <point x="431" y="730" type="line"/>
    </contour>
  </outline>
</glyph>
<glyph name="zero" format="1">
  <advance width="604"/>
  <unicode hex="0030"/>
  <outline>
    <contour>
      <point x="118" y="702"/>
      <point x="49" y="576"/>
      <point x="48" y="381" type="curve" smooth="yes"/>
      <point x="48" y="379"/>
      <point x="48" y="315"/>
      <point x="48" y="313" type="curve" smooth="yes"/>
      <point x="48" y="115"/>
      <point x="117" y="-13"/>
      <point x="302" y="-13" type="curve" smooth="yes"/>
      <point x="488" y="-13"/>
      <point x="556" y="115"/>
      <point x="556" y="314" type="curve" smooth="yes"/>
      <point x="556" y="316"/>
      <point x="556" y="381"/>
      <point x="556" y="383" type="curve" smooth="yes"/>
      <point x="555" y="577"/>
      <point x="485" y="702"/>
      <point x="302" y="702" type="curve" smooth="yes"/>
    </contour>
    <contour>
      <point x="377" y="588"/>
      <point x="414" y="525"/>
      <point x="414" y="385" type="curve" smooth="yes"/>
      <point x="414" y="384"/>
      <point x="414" y="309"/>
      <point x="414" y="308" type="curve" smooth="yes"/>
      <point x="414" y="165"/>
      <point x="378" y="101"/>
      <point x="302" y="101" type="curve" smooth="yes"/>
      <point x="226" y="101"/>
      <point x="190" y="164"/>
      <point x="190" y="307" type="curve" smooth="yes"/>
      <point x="190" y="308"/>
      <point x="190" y="383"/>
      <point x="190" y="384" type="curve" smooth="yes"/>
      <point x="190" y="525"/>
      <point x="227" y="588"/>
      <point x="302" y="588" type="curve" smooth="yes"/>
    </contour>
  </outline>
</glyph>
<glyph name="one" format="1">
  <advance width="604"/>
  <unicode hex="0031"/>
  <outline>
    <contour>
      <point x="282" y="685" type="line"/>
      <point x="267" y="626"/>
      <point x="178" y="606"/>
      <point x="106" y="602" type="curve"/>
      <point x="106" y="506" type="line"/>
      <point x="262" y="506" type="line"/>
      <point x="262" y="0" type="line"/>
      <point x="402" y="0" type="line"/>
      <point x="402" y="690" type="line"/>
    </contour>
  </outline>
</glyph>
<glyph name="two" format="1">
  <advance width="581"/>
  <unicode hex="0032"/>
  <outline>
    <contour>
      <point x="156" y="702"/>
      <point x="79" y="642"/>
      <point x="49" y="550" type="curve" smooth="yes"/>
      <point x="47" y="546"/>
      <point x="46" y="543"/>
      <point x="45" y="541" type="curve"/>
      <point x="167" y="494" type="line"/>
      <point x="182" y="544"/>
      <point x="216" y="585"/>
      <point x="281" y="585" type="curve" smooth="yes"/>
      <point x="335" y="585"/>
      <point x="372" y="555"/>
      <point x="372" y="503" type="curve" smooth="yes"/>
      <point x="372" y="478"/>
      <point x="365" y="453"/>
      <point x="351" y="428" type="curve" smooth="yes"/>
      <point x="338" y="402"/>
      <point x="318" y="374"/>
      <point x="290" y="342" type="curve" smooth="yes"/>
      <point x="252" y="299"/>
      <point x="101" y="149"/>
      <point x="50" y="106" type="curve"/>
      <point x="50" y="0" type="line"/>
      <point x="536" y="0" type="line"/>
      <point x="536" y="119" type="line"/>
      <point x="235" y="119" type="line"/>
      <point x="247" y="128"/>
      <point x="364" y="240"/>
      <point x="398" y="277" type="curve" smooth="yes"/>
      <point x="438" y="319"/>
      <point x="467" y="357"/>
      <point x="486" y="391" type="curve" smooth="yes"/>
      <point x="505" y="426"/>
      <point x="514" y="464"/>
      <point x="514" y="507" type="curve" smooth="yes"/>
      <point x="514" y="636"/>
      <point x="418" y="702"/>
      <point x="285" y="702" type="curve" smooth="yes"/>
    </contour>
  </outline>
</glyph>
<glyph name="three" format="1">
  <advance width="581"/>
  <unicode hex="0033"/>
  <outline>
    <contour>
      <point x="160" y="702"/>
      <point x="75" y="654"/>
      <point x="44" y="569" type="curve" smooth="yes"/>
      <point x="43" y="566"/>
      <point x="42" y="563"/>
      <point x="41" y="561" type="curve"/>
      <point x="162" y="515" type="line"/>
      <point x="178" y="559"/>
      <point x="214" y="585"/>
      <point x="274" y="585" type="curve" smooth="yes"/>
      <point x="330" y="585"/>
      <point x="365" y="558"/>
      <point x="365" y="507" type="curve" smooth="yes"/>
      <point x="365" y="443"/>
      <point x="322" y="414"/>
      <point x="253" y="414" type="curve" smooth="yes"/>
      <point x="190" y="414" type="line"/>
      <point x="190" y="300" type="line"/>
      <point x="258" y="300" type="line"/>
      <point x="338" y="300"/>
      <point x="377" y="267"/>
      <point x="377" y="200" type="curve" smooth="yes"/>
      <point x="377" y="134"/>
      <point x="336" y="105"/>
      <point x="267" y="105" type="curve" smooth="yes"/>
      <point x="207" y="105"/>
      <point x="169" y="135"/>
      <point x="155" y="180" type="curve"/>
      <point x="33" y="134" type="line"/>
      <point x="34" y="131"/>
      <point x="35" y="128"/>
      <point x="36" y="125" type="curve" smooth="yes"/>
      <point x="59" y="39"/>
      <point x="153" y="-12"/>
      <point x="265" y="-12" type="curve" smooth="yes"/>
      <point x="411" y="-12"/>
      <point x="519" y="51"/>
      <point x="519" y="194" type="curve" smooth="yes"/>
      <point x="519" y="286"/>
      <point x="463" y="347"/>
      <point x="382" y="361" type="curve"/>
      <point x="458" y="384"/>
      <point x="508" y="440"/>
      <point x="508" y="522" type="curve" smooth="yes"/>
      <point x="508" y="635"/>
      <point x="413" y="702"/>
      <point x="278" y="702" type="curve" smooth="yes"/>
    </contour>
  </outline>
</glyph>
<glyph name="four" format="1">
  <advance width="604"/>
  <unicode hex="0034"/>
  <outline>
    <contour>
      <point x="346" y="690" type="line"/>
      <point x="30" y="239" type="line"/>
      <point x="32" y="129" type="line"/>
      <point x="352" y="129" type="line"/>
      <point x="352" y="0" type="line"/>
      <point x="488" y="0" type="line"/>
      <point x="488" y="129" type="line"/>
      <point x="570" y="129" type="line"/>
      <point x="570" y="244" type="line"/>
      <point x="488" y="244" type="line"/>
      <point x="488" y="690" type="line"/>
    </contour>
    <contour>
      <point x="352" y="244" type="line"/>
      <point x="163" y="244" type="line"/>
      <point x="185" y="278"/>
      <point x="329" y="470"/>
      <point x="350" y="505" type="curve"/>
      <point x="352" y="505" type="line"/>
    </contour>
  </outline>
</glyph>
<glyph name="five" format="1">
  <advance width="581"/>
  <unicode hex="0035"/>
  <outline>
    <contour>
      <point x="105" y="690" type="line"/>
      <point x="65" y="302" type="line"/>
      <point x="173" y="299" type="line"/>
      <point x="192" y="328"/>
      <point x="224" y="343"/>
      <point x="272" y="343" type="curve" smooth="yes"/>
      <point x="346" y="343"/>
      <point x="392" y="299"/>
      <point x="392" y="226" type="curve" smooth="yes"/>
      <point x="392" y="151"/>
      <point x="354" y="105"/>
      <point x="272" y="105" type="curve" smooth="yes"/>
      <point x="213" y="105"/>
      <point x="172" y="134"/>
      <point x="157" y="185" type="curve"/>
      <point x="36" y="135" type="line"/>
      <point x="37" y="133"/>
      <point x="38" y="130"/>
      <point x="39" y="127" type="curve" smooth="yes"/>
      <point x="68" y="38"/>
      <point x="158" y="-12"/>
      <point x="273" y="-12" type="curve" smooth="yes"/>
      <point x="434" y="-12"/>
      <point x="534" y="75"/>
      <point x="534" y="224" type="curve" smooth="yes"/>
      <point x="534" y="370"/>
      <point x="452" y="457"/>
      <point x="308" y="457" type="curve" smooth="yes"/>
      <point x="267" y="457"/>
      <point x="231" y="448"/>
      <point x="202" y="432" type="curve"/>
      <point x="218" y="569" type="line"/>
      <point x="501" y="569" type="line"/>
      <point x="501" y="690" type="line"/>
    </contour>
  </outline>
</glyph>
<glyph name="six" format="1">
  <advance width="581"/>
  <unicode hex="0036"/>
  <outline>
    <contour>
      <point x="143" y="702"/>
      <point x="50" y="557"/>
      <point x="49" y="352" type="curve" smooth="yes"/>
      <point x="49" y="350"/>
      <point x="49" y="292"/>
      <point x="49" y="289" type="curve" smooth="yes"/>
      <point x="49" y="108"/>
      <point x="138" y="-12"/>
      <point x="304" y="-12" type="curve" smooth="yes"/>
      <point x="448" y="-12"/>
      <point x="545" y="82"/>
      <point x="545" y="226" type="curve" smooth="yes"/>
      <point x="545" y="362"/>
      <point x="472" y="458"/>
      <point x="340" y="458" type="curve" smooth="yes"/>
      <point x="273" y="458"/>
      <point x="236" y="441"/>
      <point x="196" y="409" type="curve"/>
      <point x="194" y="413"/>
      <point x="196" y="416"/>
      <point x="196" y="419" type="curve" smooth="yes"/>
      <point x="203" y="521"/>
      <point x="244" y="587"/>
      <point x="332" y="587" type="curve" smooth="yes"/>
      <point x="384" y="587"/>
      <point x="413" y="573"/>
      <point x="447" y="552" type="curve"/>
      <point x="504" y="657" type="line"/>
      <point x="462" y="687"/>
      <point x="407" y="702"/>
      <point x="332" y="702" type="curve" smooth="yes"/>
    </contour>
    <contour>
      <point x="368" y="345"/>
      <point x="405" y="293"/>
      <point x="405" y="224" type="curve" smooth="yes"/>
      <point x="405" y="152"/>
      <point x="372" y="102"/>
      <point x="304" y="102" type="curve" smooth="yes"/>
      <point x="218" y="102"/>
      <point x="194" y="172"/>
      <point x="192" y="265" type="curve" smooth="yes"/>
      <point x="192" y="271"/>
      <point x="192" y="297"/>
      <point x="192" y="304" type="curve"/>
      <point x="214" y="327"/>
      <point x="254" y="345"/>
      <point x="302" y="345" type="curve" smooth="yes"/>
    </contour>
  </outline>
</glyph>
<glyph name="seven" format="1">
  <advance width="604"/>
  <unicode hex="0037"/>
  <outline>
    <contour>
      <point x="45" y="690" type="line"/>
      <point x="45" y="570" type="line"/>
      <point x="400" y="570" type="line"/>
      <point x="352" y="515"/>
      <point x="169" y="119"/>
      <point x="159" y="0" type="curve"/>
      <point x="308" y="0" type="line"/>
      <point x="320" y="116"/>
      <point x="489" y="524"/>
      <point x="550" y="596" type="curve"/>
      <point x="550" y="690" type="line"/>
    </contour>
  </outline>
</glyph>
<glyph name="eight" format="1">
  <advance width="581"/>
  <unicode hex="0038"/>
  <outline>
    <contour>
      <point x="157" y="702"/>
      <point x="59" y="642"/>
      <point x="59" y="513" type="curve" smooth="yes"/>
      <point x="59" y="436"/>
      <point x="108" y="389"/>
      <point x="166" y="361" type="curve"/>
      <point x="100" y="332"/>
      <point x="42" y="277"/>
      <point x="42" y="187" type="curve" smooth="yes"/>
      <point x="42" y="49"/>
      <point x="148" y="-12"/>
      <point x="292" y="-12" type="curve" smooth="yes"/>
      <point x="434" y="-12"/>
      <point x="539" y="50"/>
      <point x="539" y="187" type="curve" smooth="yes"/>
      <point x="539" y="275"/>
      <point x="496" y="319"/>
      <point x="408" y="360" type="curve"/>
      <point x="482" y="399"/>
      <point x="523" y="438"/>
      <point x="523" y="514" type="curve" smooth="yes"/>
      <point x="523" y="643"/>
      <point x="424" y="702"/>
      <point x="291" y="702" type="curve" smooth="yes"/>
    </contour>
    <contour>
      <point x="362" y="287"/>
      <point x="400" y="250"/>
      <point x="400" y="191" type="curve" smooth="yes"/>
      <point x="400" y="131"/>
      <point x="356" y="97"/>
      <point x="292" y="97" type="curve" smooth="yes"/>
      <point x="226" y="97"/>
      <point x="183" y="129"/>
      <point x="183" y="191" type="curve" smooth="yes"/>
      <point x="183" y="250"/>
      <point x="217" y="287"/>
      <point x="291" y="309" type="curve"/>
    </contour>
    <contour>
      <point x="348" y="594"/>
      <point x="385" y="564"/>
      <point x="385" y="510" type="curve" smooth="yes"/>
      <point x="385" y="467"/>
      <point x="359" y="433"/>
      <point x="292" y="412" type="curve"/>
      <point x="230" y="428"/>
      <point x="197" y="455"/>
      <point x="197" y="512" type="curve" smooth="yes"/>
      <point x="197" y="558"/>
      <point x="223" y="594"/>
      <point x="291" y="594" type="curve" smooth="yes"/>
    </contour>
  </outline>
</glyph>
<glyph name="nine" format="1">
  <advance width="581"/>
  <unicode hex="0039"/>
  <outline>
    <contour>
      <point x="138" y="702"/>
      <point x="41" y="605"/>
      <point x="41" y="464" type="curve" smooth="yes"/>
      <point x="41" y="322"/>
      <point x="117" y="232"/>
      <point x="257" y="232" type="curve" smooth="yes"/>
      <point x="316" y="232"/>
      <point x="354" y="255"/>
      <point x="388" y="284" type="curve"/>
      <point x="387" y="282"/>
      <point x="387" y="266"/>
      <point x="387" y="263" type="curve" smooth="yes"/>
      <point x="378" y="163"/>
      <point x="335" y="102"/>
      <point x="257" y="102" type="curve" smooth="yes"/>
      <point x="205" y="102"/>
      <point x="165" y="114"/>
      <point x="129" y="137" type="curve"/>
      <point x="76" y="33" type="line"/>
      <point x="118" y="4"/>
      <point x="181" y="-12"/>
      <point x="257" y="-12" type="curve" smooth="yes"/>
      <point x="443" y="-12"/>
      <point x="533" y="134"/>
      <point x="533" y="335" type="curve" smooth="yes"/>
      <point x="533" y="337"/>
      <point x="533" y="406"/>
      <point x="533" y="408" type="curve" smooth="yes"/>
      <point x="531" y="588"/>
      <point x="445" y="702"/>
      <point x="279" y="702" type="curve" smooth="yes"/>
    </contour>
    <contour>
      <point x="355" y="588"/>
      <point x="387" y="533"/>
      <point x="390" y="431" type="curve" smooth="yes"/>
      <point x="390" y="425"/>
      <point x="390" y="392"/>
      <point x="390" y="385" type="curve"/>
      <point x="367" y="363"/>
      <point x="328" y="343"/>
      <point x="282" y="343" type="curve" smooth="yes"/>
      <point x="215" y="343"/>
      <point x="180" y="397"/>
      <point x="180" y="466" type="curve" smooth="yes"/>
      <point x="180" y="533"/>
      <point x="215" y="588"/>
      <point x="280" y="588" type="curve" smooth="yes"/>
    </contour>
  </outline>
</glyph>
<glyph name="colon" format="1">
  <advance width="285"/>
  <unicode hex="003A"/>
  <outline>
    <contour>
      <point x="0" y="10" type="line"/>
      <point x="0" y="0" type="line"/>
      <point x="285" y="0" type="line"/>
      <point x="285" y="10" type="line"/>
    </contour>
  </outline>
</glyph>
<glyph name="semicolon" format="1">
  <advance width="281"/>
  <unicode hex="003B"/>
  <outline>
    <contour>
      <point x="0" y="10" type="line"/>
      <point x="0" y="0" type="line"/>
      <point x="281" y="0" type="line"/>
      <point x="281" y="10" type="line"/>
    </contour>
  </outline>
</glyph>
<glyph name="less" format="1">
  <advance width="621"/>
  <unicode hex="003C"/>
  <outline>
    <contour>
      <point x="0" y="10" type="line"/>
      <point x="0" y="0" type="line"/>
      <point x="621" y="0" type="line"/>
      <point x="621" y="10" type="line"/>
    </contour>
  </outline>
</glyph>
<glyph name="equal" format="1">
  <advance width="648"/>
  <unicode hex="003D"/>
  <outline>
    <contour>
      <point x="65" y="238" type="line"/>
      <point x="65" y="133" type="line"/>
      <point x="581" y="133" type="line"/>
      <point x="581" y="238" type="line"/>
    </contour>
    <contour>
      <point x="65" y="466" type="line"/>
      <point x="65" y="362" type="line"/>
      <point x="581" y="362" type="line"/>
      <point x="581" y="466" type="line"/>
    </contour>
  </outline>
</glyph>
<glyph name="greater" format="1">
  <advance width="624"/>
  <unicode hex="003E"/>
  <outline>
    <contour>
      <point x="62" y="423" type="line"/>
      <point x="424" y="282" type="line"/>
      <point x="424" y="276" type="line"/>
      <point x="62" y="134" type="line"/>
      <point x="62" y="15" type="line"/>
      <point x="573" y="226" type="line"/>
      <point x="573" y="330" type="line"/>
      <point x="62" y="542" type="line"/>
    </contour>
  </outline>
</glyph>
<glyph name="question" format="1">
  <advance width="512"/>
  <unicode hex="003F"/>
  <outline>
    <contour>
      <point x="124" y="702"/>
      <point x="44" y="651"/>
      <point x="18" y="556" type="curve" smooth="yes"/>
      <point x="18" y="555"/>
      <point x="18" y="552"/>
      <point x="17" y="551" type="curve"/>
      <point x="141" y="511" type="line"/>
      <point x="157" y="557"/>
      <point x="187" y="587"/>
      <point x="247" y="587" type="curve" smooth="yes"/>
      <point x="309" y="587"/>
      <point x="341" y="558"/>
      <point x="341" y="504" type="curve" smooth="yes"/>
      <point x="341" y="453"/>
      <point x="312" y="418"/>
      <point x="269" y="389" type="curve" smooth="yes"/>
      <point x="239" y="369"/>
      <point x="206" y="348"/>
      <point x="168" y="326" type="curve"/>
      <point x="163" y="317"/>
      <point x="160" y="216"/>
      <point x="160" y="198" type="curve"/>
      <point x="297" y="198" type="line"/>
      <point x="297" y="207"/>
      <point x="298" y="267"/>
      <point x="299" y="272" type="curve"/>
      <point x="335" y="297"/>
      <point x="363" y="317"/>
      <point x="387" y="337" type="curve" smooth="yes"/>
      <point x="436" y="374"/>
      <point x="483" y="429"/>
      <point x="483" y="510" type="curve" smooth="yes"/>
      <point x="483" y="641"/>
      <point x="384" y="702"/>
      <point x="246" y="702" type="curve" smooth="yes"/>
    </contour>
    <contour>
      <point x="224" y="135"/>
      <point x="154" y="123"/>
      <point x="154" y="90" type="curve" smooth="yes"/>
      <point x="154" y="57"/>
      <point x="166" y="-4"/>
      <point x="201" y="-4" type="curve" smooth="yes"/>
      <point x="235" y="-4"/>
      <point x="306" y="7"/>
      <point x="306" y="41" type="curve" smooth="yes"/>
      <point x="306" y="74"/>
      <point x="293" y="135"/>
      <point x="258" y="135" type="curve" smooth="yes"/>
    </contour>
  </outline>
</glyph>
<glyph name="at" format="1">
  <advance width="926"/>
  <unicode hex="0040"/>
  <outline>
    <contour>
      <point x="233" y="691"/>
      <point x="43" y="518"/>
      <point x="43" y="244" type="curve" smooth="yes"/>
      <point x="43" y="-3"/>
      <point x="192" y="-179"/>
      <point x="459" y="-179" type="curve" smooth="yes"/>
      <point x="545" y="-179"/>
      <point x="622" y="-167"/>
      <point x="676" y="-148" type="curve"/>
      <point x="657" y="-66" type="line"/>
      <point x="598" y="-84"/>
      <point x="535" y="-93"/>
      <point x="461" y="-93" type="curve" smooth="yes"/>
      <point x="265" y="-93"/>
      <point x="140" y="32"/>
      <point x="140" y="243" type="curve" smooth="yes"/>
      <point x="140" y="439"/>
      <point x="258" y="607"/>
      <point x="474" y="607" type="curve" smooth="yes"/>
      <point x="681" y="607"/>
      <point x="785" y="485"/>
      <point x="785" y="277" type="curve" smooth="yes"/>
      <point x="785" y="183"/>
      <point x="763" y="84"/>
      <point x="677" y="84" type="curve" smooth="yes"/>
      <point x="647" y="84"/>
      <point x="641" y="105"/>
      <point x="642" y="144" type="curve"/>
      <point x="651" y="461" type="line"/>
      <point x="643" y="466"/>
      <point x="572" y="471"/>
      <point x="564" y="474" type="curve"/>
      <point x="562" y="475"/>
      <point x="560" y="464"/>
      <point x="558" y="465" type="curve"/>
      <point x="526" y="482"/>
      <point x="491" y="490"/>
      <point x="454" y="490" type="curve" smooth="yes"/>
      <point x="323" y="490"/>
      <point x="244" y="362"/>
      <point x="244" y="219" type="curve" smooth="yes"/>
      <point x="244" y="100"/>
      <point x="298" y="9"/>
      <point x="413" y="9" type="curve" smooth="yes"/>
      <point x="467" y="9"/>
      <point x="510" y="32"/>
      <point x="547" y="70" type="curve"/>
      <point x="564" y="24"/>
      <point x="604" y="1"/>
      <point x="665" y="1" type="curve" smooth="yes"/>
      <point x="813" y="1"/>
      <point x="879" y="117"/>
      <point x="879" y="278" type="curve" smooth="yes"/>
      <point x="879" y="534"/>
      <point x="730" y="691"/>
      <point x="475" y="691" type="curve" smooth="yes"/>
    </contour>
    <contour>
      <point x="493" y="400"/>
      <point x="519" y="391"/>
      <point x="547" y="376" type="curve"/>
      <point x="539" y="279"/>
      <point x="538" y="155"/>
      <point x="538" y="153" type="curve"/>
      <point x="505" y="121"/>
      <point x="473" y="102"/>
      <point x="437" y="102" type="curve" smooth="yes"/>
      <point x="374" y="102"/>
      <point x="352" y="154"/>
      <point x="352" y="222" type="curve" smooth="yes"/>
      <point x="352" y="333"/>
      <point x="392" y="400"/>
      <point x="470" y="400" type="curve" smooth="yes"/>
    </contour>
  </outline>
</glyph>
<glyph name="A" format="1">
  <advance width="647"/>
  <unicode hex="0041"/>
  <outline>
    <contour>
      <point x="242" y="690" type="line"/>
      <point x="10" y="0" type="line"/>
      <point x="150" y="0" type="line"/>
      <point x="196" y="143" type="line"/>
      <point x="452" y="143" type="line"/>
      <point x="498" y="0" type="line"/>
      <point x="640" y="0" type="line"/>
      <point x="408" y="690" type="line"/>
    </contour>
    <contour>
      <point x="414" y="261" type="line"/>
      <point x="233" y="261" type="line"/>
      <point x="323" y="539" type="line"/>
      <point x="325" y="539" type="line"/>
    </contour>
    <contour>
      <point x="325" y="690" type="move" name="top"/>
    </contour>
    <contour>
      <point x="565" y="0" type="move" name="ogonek"/>
    </contour>
  </outline>
</glyph>
<glyph name="B" format="1">
  <advance width="636"/>
  <unicode hex="0042"/>
  <outline>
    <contour>
      <point x="70" y="0" type="line"/>
      <point x="332" y="0" type="line" smooth="yes"/>
      <point x="484" y="0"/>
      <point x="594" y="55"/>
      <point x="594" y="200" type="curve" smooth="yes"/>
      <point x="594" y="300"/>
      <point x="537" y="351"/>
      <point x="445" y="366" type="curve"/>
      <point x="516" y="385"/>
      <point x="562" y="433"/>
      <point x="562" y="517" type="curve" smooth="yes"/>
      <point x="562" y="640"/>
      <point x="474" y="690"/>
      <point x="310" y="690" type="curve"/>
      <point x="70" y="690" type="line"/>
    </contour>
    <contour>
      <point x="210" y="117" type="line"/>
      <point x="210" y="300" type="line"/>
      <point x="323" y="300" type="line" smooth="yes"/>
      <point x="419" y="300"/>
      <point x="453" y="272"/>
      <point x="453" y="208" type="curve" smooth="yes"/>
      <point x="453" y="128"/>
      <point x="393" y="117"/>
      <point x="305" y="117" type="curve"/>
    </contour>
    <contour>
      <point x="210" y="412" type="line"/>
      <point x="210" y="574" type="line"/>
      <point x="302" y="574" type="line" smooth="yes"/>
      <point x="372" y="574"/>
      <point x="421" y="559"/>
      <point x="421" y="495" type="curve" smooth="yes"/>
      <point x="421" y="430"/>
      <point x="371" y="412"/>
      <point x="302" y="412" type="curve"/>
    </contour>
    <contour>
      <point x="295" y="690" type="move" name="top"/>
    </contour>
  </outline>
</glyph>
<glyph name="C" format="1">
  <advance width="646"/>
  <unicode hex="0043"/>
  <outline>
    <contour>
      <point x="350" y="-12" type="curve" smooth="yes"/>
      <point x="489" y="-12"/>
      <point x="578" y="46"/>
      <point x="611" y="154" type="curve" smooth="yes"/>
      <point x="612" y="157"/>
      <point x="614" y="161"/>
      <point x="615" y="164" type="curve"/>
      <point x="494" y="212" type="line"/>
      <point x="473" y="145"/>
      <point x="434" y="104"/>
      <point x="350" y="104" type="curve" smooth="yes"/>
      <point x="233" y="104"/>
      <point x="189" y="193"/>
      <point x="189" y="317" type="curve" smooth="yes"/>
      <point x="189" y="319"/>
      <point x="189" y="378"/>
      <point x="189" y="380" type="curve" smooth="yes"/>
      <point x="190" y="513"/>
      <point x="245" y="585"/>
      <point x="346" y="585" type="curve" smooth="yes"/>
      <point x="433" y="585"/>
      <point x="469" y="547"/>
      <point x="490" y="478" type="curve"/>
      <point x="609" y="528" type="line"/>
      <point x="608" y="531"/>
      <point x="607" y="534"/>
      <point x="606" y="537" type="curve" smooth="yes"/>
      <point x="578" y="643"/>
      <point x="483" y="702"/>
      <point x="344" y="702" type="curve" smooth="yes"/>
      <point x="151" y="702"/>
      <point x="48" y="579"/>
      <point x="46" y="379" type="curve" smooth="yes"/>
      <point x="46" y="377"/>
      <point x="46" y="319"/>
      <point x="46" y="317" type="curve" smooth="yes"/>
      <point x="46" y="107"/>
      <point x="156" y="-12"/>
    </contour>
    <contour>
      <point x="350" y="0" type="move" name="bot"/>
    </contour>
    <contour>
      <point x="344" y="690" type="move" name="top"/>
    </contour>
  </outline>
</glyph>
<glyph name="D" format="1">
  <advance width="647"/>
  <unicode hex="0044"/>
  <outline>
    <contour>
      <point x="207" y="119" type="line"/>
      <point x="207" y="570" type="line"/>
      <point x="276" y="570" type="line"/>
      <point x="424" y="570"/>
      <point x="461" y="502"/>
      <point x="461" y="372" type="curve" smooth="yes"/>
      <point x="461" y="371"/>
      <point x="461" y="323"/>
      <point x="461" y="322" type="curve" smooth="yes"/>
      <point x="461" y="166"/>
      <point x="403" y="119"/>
      <point x="276" y="119" type="curve" smooth="yes"/>
    </contour>
    <contour>
      <point x="67" y="0" type="line"/>
      <point x="288" y="0" type="line"/>
      <point x="513" y="0"/>
      <point x="603" y="118"/>
      <point x="603" y="321" type="curve" smooth="yes"/>
      <point x="603" y="323"/>
      <point x="603" y="373"/>
      <point x="603" y="375" type="curve" smooth="yes"/>
      <point x="602" y="581"/>
      <point x="495" y="690"/>
      <point x="287" y="690" type="curve" smooth="yes"/>
      <point x="67" y="690" type="line"/>
    </contour>
    <contour>
      <point x="146" y="352" type="move" name="mid"/>
    </contour>
    <contour>
      <point x="315" y="690" type="move" name="top"/>
    </contour>
  </outline>
</glyph>
<glyph name="E" format="1">
  <advance width="566"/>
  <unicode hex="0045"/>
  <outline>
    <contour>
      <point x="70" y="690" type="line"/>
      <point x="70" y="0" type="line"/>
      <point x="528" y="0" type="line"/>
      <point x="528" y="119" type="line"/>
      <point x="210" y="119" type="line"/>
      <point x="210" y="298" type="line"/>
      <point x="480" y="298" type="line"/>
      <point x="480" y="415" type="line"/>
      <point x="210" y="415" type="line"/>
      <point x="210" y="573" type="line"/>
      <point x="528" y="573" type="line"/>
      <point x="528" y="690" type="line"/>
    </contour>
    <contour>
      <point x="316" y="690" type="move" name="top"/>
    </contour>
  </outline>
</glyph>
<glyph name="F" format="1">
  <advance width="554"/>
  <unicode hex="0046"/>
  <outline>
    <contour>
      <point x="70" y="690" type="line"/>
      <point x="70" y="0" type="line"/>
      <point x="210" y="0" type="line"/>
      <point x="210" y="287" type="line"/>
      <point x="479" y="287" type="line"/>
      <point x="479" y="404" type="line"/>
      <point x="210" y="404" type="line"/>
      <point x="210" y="570" type="line"/>
      <point x="528" y="570" type="line"/>
      <point x="528" y="690" type="line"/>
    </contour>
    <contour>
      <point x="305" y="690" type="move" name="top"/>
    </contour>
  </outline>
</glyph>
<glyph name="G" format="1">
  <advance width="681"/>
  <unicode hex="0047"/>
  <outline>
    <contour>
      <point x="357" y="-12" type="curve" smooth="yes"/>
      <point x="466" y="-12"/>
      <point x="565" y="25"/>
      <point x="620" y="77" type="curve"/>
      <point x="620" y="364" type="line"/>
      <point x="351" y="364" type="line"/>
      <point x="351" y="251" type="line"/>
      <point x="480" y="251" type="line"/>
      <point x="480" y="136" type="line"/>
      <point x="447" y="114"/>
      <point x="405" y="104"/>
      <point x="354" y="104" type="curve" smooth="yes"/>
      <point x="235" y="104"/>
      <point x="189" y="186"/>
      <point x="189" y="312" type="curve" smooth="yes"/>
      <point x="189" y="314"/>
      <point x="189" y="376"/>
      <point x="189" y="378" type="curve" smooth="yes"/>
      <point x="191" y="498"/>
      <point x="237" y="585"/>
      <point x="353" y="585" type="curve" smooth="yes"/>
      <point x="434" y="585"/>
      <point x="477" y="549"/>
      <point x="498" y="487" type="curve"/>
      <point x="616" y="537" type="line"/>
      <point x="615" y="539"/>
      <point x="614" y="541"/>
      <point x="613" y="543" type="curve" smooth="yes"/>
      <point x="583" y="646"/>
      <point x="486" y="702"/>
      <point x="350" y="702" type="curve" smooth="yes"/>
      <point x="158" y="702"/>
      <point x="48" y="584"/>
      <point x="47" y="375" type="curve" smooth="yes"/>
      <point x="47" y="373"/>
      <point x="47" y="313"/>
      <point x="47" y="312" type="curve" smooth="yes"/>
      <point x="47" y="105"/>
      <point x="154" y="-12"/>
    </contour>
    <contour>
      <point x="348" y="690" type="move" name="top"/>
    </contour>
  </outline>
</glyph>
<glyph name="H" format="1">
  <advance width="695"/>
  <unicode hex="0048"/>
  <outline>
    <contour>
      <point x="486" y="690" type="line"/>
      <point x="486" y="410" type="line"/>
      <point x="210" y="410" type="line"/>
      <point x="210" y="690" type="line"/>
      <point x="70" y="690" type="line"/>
      <point x="70" y="0" type="line"/>
      <point x="210" y="0" type="line"/>
      <point x="210" y="290" type="line"/>
      <point x="486" y="290" type="line"/>
      <point x="486" y="0" type="line"/>
      <point x="625" y="0" type="line"/>
      <point x="625" y="690" type="line"/>
    </contour>
    <contour>
      <point x="354" y="690" type="move" name="top"/>
    </contour>
  </outline>
</glyph>
<glyph name="I" format="1">
  <advance width="440"/>
  <unicode hex="0049"/>
  <outline>
    <contour>
      <point x="52" y="690" type="line"/>
      <point x="52" y="587" type="line"/>
      <point x="150" y="587" type="line"/>
      <point x="150" y="103" type="line"/>
      <point x="52" y="103" type="line"/>
      <point x="52" y="0" type="line"/>
      <point x="388" y="0" type="line"/>
      <point x="388" y="103" type="line"/>
      <point x="290" y="103" type="line"/>
      <point x="290" y="587" type="line"/>
      <point x="388" y="587" type="line"/>
      <point x="388" y="690" type="line"/>
    </contour>
    <contour>
      <point x="226" y="690" type="move" name="top"/>
    </contour>
  </outline>
</glyph>
<glyph name="J" format="1">
  <advance width="499"/>
  <unicode hex="004A"/>
  <outline>
    <contour>
      <point x="288" y="690" type="line"/>
      <point x="288" y="218" type="line"/>
      <point x="288" y="134"/>
      <point x="266" y="104"/>
      <point x="202" y="104" type="curve" smooth="yes"/>
      <point x="160" y="104"/>
      <point x="109" y="130"/>
      <point x="99" y="163" type="curve"/>
      <point x="19" y="89" type="line"/>
      <point x="55.8444" y="70.5778"/>
      <point x="113.14" y="-13"/>
      <point x="200" y="-13" type="curve" smooth="yes"/>
      <point x="344" y="-13"/>
      <point x="428" y="52"/>
      <point x="428" y="196" type="curve" smooth="yes"/>
      <point x="428" y="690" type="line"/>
    </contour>
    <contour>
      <point x="325" y="690" type="move" name="top"/>
    </contour>
  </outline>
</glyph>
<glyph name="K" format="1">
  <advance width="633"/>
  <unicode hex="004B"/>
  <outline>
    <contour>
      <point x="443" y="690" type="line"/>
      <point x="210" y="386" type="line"/>
      <point x="210" y="690" type="line"/>
      <point x="70" y="690" type="line"/>
      <point x="70" y="0" type="line"/>
      <point x="210" y="0" type="line"/>
      <point x="210" y="260" type="line"/>
      <point x="251" y="308" type="line"/>
      <point x="455" y="0" type="line"/>
      <point x="628" y="0" type="line"/>
      <point x="363" y="383" type="line"/>
      <point x="609" y="690" type="line"/>
    </contour>
    <contour>
      <point x="325" y="690" type="move" name="top"/>
    </contour>
  </outline>
</glyph>
<glyph name="L" format="1">
  <advance width="520"/>
  <unicode hex="004C"/>
  <outline>
    <contour>
      <point x="70" y="690" type="line"/>
      <point x="70" y="0" type="line"/>
      <point x="507" y="0" type="line"/>
      <point x="507" y="119" type="line"/>
      <point x="210" y="119" type="line"/>
      <point x="210" y="690" type="line"/>
    </contour>
    <contour>
      <point x="155" y="690" type="move" name="top"/>
    </contour>
  </outline>
</glyph>
<glyph name="M" format="1">
  <advance width="837"/>
  <unicode hex="004D"/>
  <outline>
    <contour>
      <point x="599" y="690" type="line"/>
      <point x="420" y="324" type="line"/>
      <point x="418" y="324" type="line"/>
      <point x="240" y="690" type="line"/>
      <point x="70" y="690" type="line"/>
      <point x="70" y="0" type="line"/>
      <point x="207" y="0" type="line"/>
      <point x="207" y="189" type="line"/>
      <point x="202" y="482" type="line"/>
      <point x="203" y="482" type="line"/>
      <point x="375" y="133" type="line"/>
      <point x="461" y="133" type="line"/>
      <point x="634" y="483" type="line"/>
      <point x="636" y="483" type="line"/>
      <point x="630" y="188" type="line"/>
      <point x="630" y="0" type="line"/>
      <point x="767" y="0" type="line"/>
      <point x="767" y="690" type="line"/>
    </contour>
    <contour>
      <point x="417" y="690" type="move" name="top"/>
    </contour>
  </outline>
</glyph>
<glyph name="N" format="1">
  <advance width="696"/>
  <unicode hex="004E"/>
  <outline>
    <contour>
      <point x="488" y="690" type="line"/>
      <point x="488" y="222" type="line"/>
      <point x="486" y="222" type="line"/>
      <point x="235" y="690" type="line"/>
      <point x="70" y="690" type="line"/>
      <point x="70" y="0" type="line"/>
      <point x="208" y="0" type="line"/>
      <point x="208" y="484" type="line"/>
      <point x="210" y="484" type="line"/>
      <point x="472" y="0" type="line"/>
      <point x="626" y="0" type="line"/>
      <point x="626" y="690" type="line"/>
    </contour>
    <contour>
      <point x="355" y="690" type="move" name="top"/>
    </contour>
  </outline>
</glyph>
<glyph name="O" format="1">
  <advance width="673"/>
  <unicode hex="004F"/>
  <outline>
    <contour>
      <point x="336" y="105" type="curve" smooth="yes"/>
      <point x="232" y="105"/>
      <point x="185" y="182"/>
      <point x="185" y="320" type="curve" smooth="yes"/>
      <point x="185" y="321"/>
      <point x="185" y="373"/>
      <point x="185" y="374" type="curve" smooth="yes"/>
      <point x="186" y="510"/>
      <point x="231" y="585"/>
      <point x="336" y="585" type="curve" smooth="yes"/>
      <point x="440" y="585"/>
      <point x="487" y="510"/>
      <point x="488" y="374" type="curve" smooth="yes"/>
      <point x="488" y="373"/>
      <point x="488" y="321"/>
      <point x="488" y="320" type="curve" smooth="yes"/>
      <point x="488" y="181"/>
      <point x="442" y="105"/>
    </contour>
    <contour>
      <point x="336" y="-12" type="curve" smooth="yes"/>
      <point x="530" y="-12"/>
      <point x="630" y="120"/>
      <point x="630" y="320" type="curve" smooth="yes"/>
      <point x="630" y="322"/>
      <point x="630" y="374"/>
      <point x="630" y="376" type="curve" smooth="yes"/>
      <point x="628" y="571"/>
      <point x="530" y="702"/>
      <point x="336" y="702" type="curve" smooth="yes"/>
      <point x="142" y="702"/>
      <point x="45" y="570"/>
      <point x="43" y="376" type="curve" smooth="yes"/>
      <point x="43" y="374"/>
      <point x="43" y="321"/>
      <point x="43" y="320" type="curve" smooth="yes"/>
      <point x="43" y="123"/>
      <point x="141" y="-12"/>
    </contour>
    <contour>
      <point x="337" y="690" type="move" name="top"/>
    </contour>
  </outline>
</glyph>
<glyph name="P" format="1">
  <advance width="623"/>
  <unicode hex="0050"/>
  <outline>
    <contour>
      <point x="70" y="0" type="line"/>
      <point x="210" y="0" type="line"/>
      <point x="210" y="229" type="line"/>
      <point x="334" y="229" type="line" smooth="yes"/>
      <point x="496" y="229"/>
      <point x="585" y="305"/>
      <point x="585" y="463" type="curve" smooth="yes"/>
      <point x="585" y="615"/>
      <point x="490" y="690"/>
      <point x="336" y="690" type="curve"/>
      <point x="70" y="690" type="line"/>
    </contour>
    <contour>
      <point x="210" y="345" type="line"/>
      <point x="210" y="574" type="line"/>
      <point x="308" y="574" type="line" smooth="yes"/>
      <point x="396" y="574"/>
      <point x="443" y="543"/>
      <point x="443" y="462" type="curve" smooth="yes"/>
      <point x="443" y="369"/>
      <point x="399" y="345"/>
      <point x="300" y="345" type="curve"/>
    </contour>
    <contour>
      <point x="315" y="690" type="move" name="top"/>
    </contour>
  </outline>
</glyph>
<glyph name="Q" format="1">
  <advance width="673"/>
  <unicode hex="0051"/>
  <outline>
    <contour>
      <point x="296" y="162" type="line"/>
      <point x="431" y="-140" type="line"/>
      <point x="549" y="-140" type="line"/>
      <point x="398" y="190" type="line"/>
    </contour>
    <component base="O"/>
  </outline>
</glyph>
<glyph name="R" format="1">
  <advance width="640"/>
  <unicode hex="0052"/>
  <outline>
    <contour>
      <point x="70" y="0" type="line"/>
      <point x="210" y="0" type="line"/>
      <point x="210" y="267" type="line"/>
      <point x="316" y="267" type="line"/>
      <point x="430" y="0" type="line"/>
      <point x="585" y="0" type="line"/>
      <point x="451" y="285" type="line"/>
      <point x="528" y="309"/>
      <point x="579" y="372"/>
      <point x="579" y="485" type="curve" smooth="yes"/>
      <point x="579" y="634"/>
      <point x="481" y="690"/>
      <point x="325" y="690" type="curve"/>
      <point x="70" y="690" type="line"/>
    </contour>
    <contour>
      <point x="210" y="383" type="line"/>
      <point x="210" y="574" type="line"/>
      <point x="324" y="574" type="line" smooth="yes"/>
      <point x="399" y="574"/>
      <point x="438" y="551"/>
      <point x="438" y="479" type="curve" smooth="yes"/>
      <point x="438" y="404"/>
      <point x="398" y="383"/>
      <point x="320" y="383" type="curve"/>
    </contour>
    <contour>
      <point x="315" y="690" type="move" name="top"/>
    </contour>
  </outline>
</glyph>
<glyph name="S" format="1">
  <advance width="614"/>
  <unicode hex="0053"/>
  <outline>
    <contour>
      <point x="310" y="-12" type="curve" smooth="yes"/>
      <point x="460" y="-12"/>
      <point x="573" y="50"/>
      <point x="573" y="192" type="curve" smooth="yes"/>
      <point x="573" y="283"/>
      <point x="527" y="333"/>
      <point x="460" y="363" type="curve" smooth="yes"/>
      <point x="427" y="383"/>
      <point x="380" y="400"/>
      <point x="326" y="415" type="curve" smooth="yes"/>
      <point x="281" y="428"/>
      <point x="245" y="441"/>
      <point x="226" y="453" type="curve" smooth="yes"/>
      <point x="204" y="466"/>
      <point x="194" y="484"/>
      <point x="194" y="506" type="curve" smooth="yes"/>
      <point x="194" y="563"/>
      <point x="246" y="586"/>
      <point x="306" y="586" type="curve" smooth="yes"/>
      <point x="380" y="586"/>
      <point x="424" y="552"/>
      <point x="443" y="494" type="curve"/>
      <point x="562" y="543" type="line"/>
      <point x="561" y="545"/>
      <point x="560" y="548"/>
      <point x="560" y="551" type="curve" smooth="yes"/>
      <point x="530" y="644"/>
      <point x="438" y="702"/>
      <point x="308" y="702" type="curve" smooth="yes"/>
      <point x="166" y="702"/>
      <point x="52" y="636"/>
      <point x="52" y="501" type="curve" smooth="yes"/>
      <point x="52" y="412"/>
      <point x="101" y="367"/>
      <point x="168" y="337" type="curve" smooth="yes"/>
      <point x="205" y="317"/>
      <point x="252" y="300"/>
      <point x="306" y="284" type="curve" smooth="yes"/>
      <point x="347" y="273"/>
      <point x="376" y="261"/>
      <point x="393" y="251" type="curve" smooth="yes"/>
      <point x="416" y="236"/>
      <point x="431" y="217"/>
      <point x="431" y="186" type="curve" smooth="yes"/>
      <point x="431" y="125"/>
      <point x="377" y="104"/>
      <point x="312" y="104" type="curve" smooth="yes"/>
      <point x="225" y="104"/>
      <point x="179" y="138"/>
      <point x="156" y="204" type="curve"/>
      <point x="37" y="155" type="line"/>
      <point x="38" y="154"/>
      <point x="39" y="151"/>
      <point x="40" y="149" type="curve" smooth="yes"/>
      <point x="70" y="45"/>
      <point x="173" y="-12"/>
    </contour>
    <contour>
      <point x="309" y="690" type="move" name="top"/>
    </contour>
  </outline>
</glyph>
<glyph name="T" format="1">
  <advance width="580"/>
  <unicode hex="0054"/>
  <outline>
    <contour>
      <point x="16" y="690" type="line"/>
      <point x="16" y="570" type="line"/>
      <point x="221" y="570" type="line"/>
      <point x="221" y="0" type="line"/>
      <point x="360" y="0" type="line"/>
      <point x="360" y="570" type="line"/>
      <point x="566" y="570" type="line"/>
      <point x="566" y="690" type="line"/>
    </contour>
    <contour>
      <point x="296" y="690" type="move" name="top"/>
    </contour>
  </outline>
</glyph>
<glyph name="U" format="1">
  <advance width="696"/>
  <unicode hex="0055"/>
  <outline>
    <contour>
      <point x="489" y="690" type="line"/>
      <point x="489" y="270" type="line" smooth="yes"/>
      <point x="489" y="159"/>
      <point x="452" y="104"/>
      <point x="347" y="104" type="curve" smooth="yes"/>
      <point x="242" y="104"/>
      <point x="207" y="163"/>
      <point x="207" y="271" type="curve"/>
      <point x="207" y="690" type="line"/>
      <point x="67" y="690" type="line"/>
      <point x="67" y="265" type="line" smooth="yes"/>
      <point x="67" y="75"/>
      <point x="160" y="-13"/>
      <point x="348" y="-13" type="curve" smooth="yes"/>
      <point x="538" y="-13"/>
      <point x="629" y="77"/>
      <point x="629" y="265" type="curve"/>
      <point x="629" y="690" type="line"/>
    </contour>
    <contour>
      <point x="355" y="690" type="move" name="top"/>
    </contour>
  </outline>
</glyph>
<glyph name="V" format="1">
  <advance width="618"/>
  <unicode hex="0056"/>
  <outline>
    <contour>
      <point x="467" y="690" type="line"/>
      <point x="324" y="209" type="line"/>
      <point x="311" y="163" type="line"/>
      <point x="309" y="163" type="line"/>
      <point x="296" y="210" type="line"/>
      <point x="153" y="690" type="line"/>
      <point x="9" y="690" type="line"/>
      <point x="231" y="0" type="line"/>
      <point x="387" y="0" type="line"/>
      <point x="610" y="690" type="line"/>
    </contour>
  </outline>
</glyph>
<glyph name="W" format="1">
  <advance width="891"/>
  <unicode hex="0057"/>
  <outline>
    <contour>
      <point x="736" y="690" type="line"/>
      <point x="630" y="229" type="line"/>
      <point x="627" y="229" type="line"/>
      <point x="506" y="690" type="line"/>
      <point x="383" y="690" type="line"/>
      <point x="263" y="231" type="line"/>
      <point x="260" y="231" type="line"/>
      <point x="155" y="690" type="line"/>
      <point x="17" y="690" type="line"/>
      <point x="186" y="0" type="line"/>
      <point x="323" y="0" type="line"/>
      <point x="443" y="456" type="line"/>
      <point x="445" y="456" type="line"/>
      <point x="564" y="0" type="line"/>
      <point x="702" y="0" type="line"/>
      <point x="874" y="690" type="line"/>
    </contour>
    <contour>
      <point x="446" y="690" type="move" name="top"/>
    </contour>
  </outline>
</glyph>
<glyph name="X" format="1">
  <advance width="631"/>
  <unicode hex="0058"/>
  <outline>
    <contour>
      <point x="457" y="690" type="line"/>
      <point x="317" y="452" type="line"/>
      <point x="181" y="690" type="line"/>
      <point x="20" y="690" type="line"/>
      <point x="236" y="347" type="line"/>
      <point x="14" y="0" type="line"/>
      <point x="172" y="0" type="line"/>
      <point x="315" y="242" type="line"/>
      <point x="457" y="0" type="line"/>
      <point x="619" y="0" type="line"/>
      <point x="397" y="348" type="line"/>
      <point x="615" y="690" type="line"/>
    </contour>
  </outline>
</glyph>
<glyph name="Y" format="1">
  <advance width="600"/>
  <unicode hex="0059"/>
  <outline>
    <contour>
      <point x="229" y="0" type="line"/>
      <point x="369" y="0" type="line"/>
      <point x="369" y="255" type="line"/>
      <point x="594" y="690" type="line"/>
      <point x="444" y="690" type="line"/>
      <point x="302" y="389" type="line"/>
      <point x="300" y="389" type="line"/>
      <point x="159" y="690" type="line"/>
      <point x="6" y="690" type="line"/>
      <point x="229" y="256" type="line"/>
    </contour>
    <contour>
      <point x="307" y="690" type="move" name="top"/>
    </contour>
  </outline>
</glyph>
<glyph name="Z" format="1">
  <advance width="571"/>
  <unicode hex="005A"/>
  <outline>
    <contour>
      <point x="45" y="690" type="line"/>
      <point x="45" y="570" type="line"/>
      <point x="357" y="570" type="line"/>
      <point x="36" y="99" type="line"/>
      <point x="36" y="0" type="line"/>
      <point x="534" y="0" type="line"/>
      <point x="534" y="119" type="line"/>
      <point x="202" y="119" type="line"/>
      <point x="526" y="595" type="line"/>
      <point x="526" y="690" type="line"/>
    </contour>
    <contour>
      <point x="286" y="690" type="move" name="top"/>
    </contour>
  </outline>
</glyph>
<glyph name="bracketleft" format="1">
  <advance width="335"/>
  <unicode hex="005B"/>
  <outline>
    <contour>
      <point x="68" y="767" type="line"/>
      <point x="68" y="-181" type="line"/>
      <point x="314" y="-181" type="line"/>
      <point x="314" y="-79" type="line"/>
      <point x="196" y="-79" type="line"/>
      <point x="196" y="664" type="line"/>
      <point x="314" y="664" type="line"/>
      <point x="314" y="767" type="line"/>
    </contour>
  </outline>
</glyph>
<glyph name="backslash" format="1">
  <advance width="471"/>
  <unicode hex="005C"/>
  <outline>
    <contour>
      <point x="30" y="730" type="line"/>
      <point x="352" y="-112" type="line"/>
      <point x="483" y="-112" type="line"/>
      <point x="162" y="730" type="line"/>
    </contour>
  </outline>
</glyph>
<glyph name="bracketright" format="1">
  <advance width="335"/>
  <unicode hex="005D"/>
  <outline>
    <contour>
      <point x="20" y="767" type="line"/>
      <point x="20" y="664" type="line"/>
      <point x="139" y="664" type="line"/>
      <point x="139" y="-79" type="line"/>
      <point x="20" y="-79" type="line"/>
      <point x="20" y="-181" type="line"/>
      <point x="266" y="-181" type="line"/>
      <point x="266" y="767" type="line"/>
    </contour>
  </outline>
</glyph>
<glyph name="asciicircum" format="1">
  <advance width="555"/>
  <unicode hex="005E"/>
  <outline>
    <contour>
      <point x="230" y="690" type="line"/>
      <point x="44" y="316" type="line"/>
      <point x="154" y="316" type="line"/>
      <point x="273" y="555" type="line"/>
      <point x="283" y="556" type="line"/>
      <point x="402" y="316" type="line"/>
      <point x="512" y="316" type="line"/>
      <point x="326" y="690" type="line"/>
    </contour>
  </outline>
</glyph>
<glyph name="underscore" format="1">
  <advance width="478"/>
  <unicode hex="005F"/>
  <outline>
    <contour>
      <point x="-3" y="-45" type="line"/>
      <point x="-3" y="-118" type="line"/>
      <point x="481" y="-118" type="line"/>
      <point x="481" y="-45" type="line"/>
    </contour>
  </outline>
</glyph>
<glyph name="grave" format="1">
  <advance width="438"/>
  <unicode hex="0060"/>
  <outline>
    <contour>
      <point x="73" y="748" type="line"/>
      <point x="213" y="591" type="line"/>
      <point x="319" y="591" type="line"/>
      <point x="225" y="748" type="line"/>
    </contour>
  </outline>
</glyph>
<glyph name="a" format="1">
  <advance width="548"/>
  <unicode hex="0061"/>
  <outline>
    <contour>
      <point x="208" y="-13" type="curve" smooth="yes"/>
      <point x="271" y="-13"/>
      <point x="320" y="17"/>
      <point x="361" y="63" type="curve"/>
      <point x="363" y="52"/>
      <point x="366" y="9"/>
      <point x="370" y="0" type="curve"/>
      <point x="496" y="0" type="line"/>
      <point x="490" y="16"/>
      <point x="487" y="86"/>
      <point x="487" y="108" type="curve"/>
      <point x="487" y="350" type="line"/>
      <point x="487" y="481"/>
      <point x="403" y="531"/>
      <point x="266" y="531" type="curve" smooth="yes"/>
      <point x="157" y="531"/>
      <point x="75" y="487"/>
      <point x="52" y="418" type="curve" smooth="yes"/>
      <point x="51" y="416"/>
      <point x="51" y="413"/>
      <point x="50" y="411" type="curve"/>
      <point x="164" y="373" type="line"/>
      <point x="175" y="410"/>
      <point x="212" y="430"/>
      <point x="261" y="430" type="curve" smooth="yes"/>
      <point x="319" y="430"/>
      <point x="354" y="409"/>
      <point x="354" y="353" type="curve" smooth="yes"/>
      <point x="354" y="322" type="line"/>
      <point x="257" y="316" type="line"/>
      <point x="110" y="306"/>
      <point x="35" y="265"/>
      <point x="35" y="146" type="curve" smooth="yes"/>
      <point x="35" y="45"/>
      <point x="103" y="-13"/>
    </contour>
    <contour>
      <point x="239" y="89" type="curve" smooth="yes"/>
      <point x="197" y="89"/>
      <point x="170" y="107"/>
      <point x="170" y="149" type="curve" smooth="yes"/>
      <point x="170" y="208"/>
      <point x="220" y="228"/>
      <point x="284" y="232" type="curve" smooth="yes"/>
      <point x="354" y="235" type="line"/>
      <point x="354" y="147" type="line"/>
      <point x="324" y="112"/>
      <point x="276" y="89"/>
    </contour>
    <contour>
      <point x="266" y="518" type="move" name="top"/>
    </contour>
    <contour>
      <point x="434" y="0" type="move" name="ogonek"/>
    </contour>
  </outline>
</glyph>
<glyph name="b" format="1">
  <advance width="582"/>
  <unicode hex="0062"/>
  <outline>
    <contour>
      <point x="336" y="-13" type="curve" smooth="yes"/>
      <point x="480" y="-13"/>
      <point x="542" y="106"/>
      <point x="542" y="256" type="curve" smooth="yes"/>
      <point x="542" y="259"/>
      <point x="542" y="265"/>
      <point x="542" y="268" type="curve" smooth="yes"/>
      <point x="540" y="417"/>
      <point x="484" y="531"/>
      <point x="340" y="531" type="curve" smooth="yes"/>
      <point x="282" y="531"/>
      <point x="236" y="509"/>
      <point x="197" y="471" type="curve"/>
      <point x="197" y="741" type="line"/>
      <point x="65" y="741" type="line"/>
      <point x="65" y="0" type="line"/>
      <point x="171" y="0" type="line"/>
      <point x="186" y="55" type="line"/>
      <point x="216" y="18"/>
      <point x="273" y="-13"/>
    </contour>
    <contour>
      <point x="300" y="98" type="curve" smooth="yes"/>
      <point x="256" y="98"/>
      <point x="218" y="121"/>
      <point x="197" y="145" type="curve"/>
      <point x="197" y="369" type="line"/>
      <point x="219" y="396"/>
      <point x="258" y="420"/>
      <point x="304" y="420" type="curve" smooth="yes"/>
      <point x="386" y="420"/>
      <point x="407" y="350"/>
      <point x="407" y="262" type="curve" smooth="yes"/>
      <point x="407" y="261"/>
      <point x="407" y="256"/>
      <point x="407" y="255" type="curve" smooth="yes"/>
      <point x="407" y="166"/>
      <point x="382" y="98"/>
    </contour>
  </outline>
</glyph>
<glyph name="c" format="1">
  <advance width="517"/>
  <unicode hex="0063"/>
  <outline>
    <contour>
      <point x="288" y="-13" type="curve" smooth="yes"/>
      <point x="390" y="-13"/>
      <point x="467" y="34"/>
      <point x="490" y="111" type="curve" smooth="yes"/>
      <point x="491" y="112"/>
      <point x="491" y="115"/>
      <point x="492" y="116" type="curve"/>
      <point x="383" y="156" type="line"/>
      <point x="368" y="117"/>
      <point x="340" y="97"/>
      <point x="290" y="97" type="curve" smooth="yes"/>
      <point x="199" y="97"/>
      <point x="174" y="160"/>
      <point x="174" y="255" type="curve" smooth="yes"/>
      <point x="174" y="257"/>
      <point x="174" y="264"/>
      <point x="174" y="266" type="curve" smooth="yes"/>
      <point x="175" y="357"/>
      <point x="199" y="421"/>
      <point x="287" y="421" type="curve" smooth="yes"/>
      <point x="338" y="421"/>
      <point x="367" y="396"/>
      <point x="380" y="356" type="curve"/>
      <point x="488" y="397" type="line"/>
      <point x="487" y="399"/>
      <point x="487" y="402"/>
      <point x="485" y="405" type="curve" smooth="yes"/>
      <point x="464" y="485"/>
      <point x="387" y="531"/>
      <point x="285" y="531" type="curve" smooth="yes"/>
      <point x="123" y="531"/>
      <point x="41" y="426"/>
      <point x="39" y="265" type="curve" smooth="yes"/>
      <point x="39" y="263"/>
      <point x="39" y="256"/>
      <point x="39" y="254" type="curve" smooth="yes"/>
      <point x="39" y="89"/>
      <point x="123" y="-13"/>
    </contour>
    <contour>
      <point x="278" y="0" type="move" name="bot"/>
    </contour>
  </outline>
</glyph>
<glyph name="d" format="1">
  <advance width="582"/>
  <unicode hex="0064"/>
  <outline>
    <contour>
      <point x="242" y="-13" type="curve" smooth="yes"/>
      <point x="312" y="-13"/>
      <point x="357" y="17"/>
      <point x="394" y="56" type="curve"/>
      <point x="399" y="0" type="line"/>
      <point x="517" y="0" type="line"/>
      <point x="517" y="741" type="line"/>
      <point x="385" y="741" type="line"/>
      <point x="385" y="473" type="line"/>
      <point x="356" y="504"/>
      <point x="308" y="531"/>
      <point x="252" y="531" type="curve" smooth="yes"/>
      <point x="107" y="531"/>
      <point x="42" y="413"/>
      <point x="40" y="262" type="curve" smooth="yes"/>
      <point x="40" y="260"/>
      <point x="40" y="253"/>
      <point x="40" y="251" type="curve" smooth="yes"/>
      <point x="40" y="102"/>
      <point x="101" y="-13"/>
    </contour>
    <contour>
      <point x="276" y="98" type="curve" smooth="yes"/>
      <point x="198" y="98"/>
      <point x="175" y="169"/>
      <point x="175" y="252" type="curve" smooth="yes"/>
      <point x="175" y="253"/>
      <point x="175" y="258"/>
      <point x="175" y="259" type="curve" smooth="yes"/>
      <point x="176" y="342"/>
      <point x="205" y="420"/>
      <point x="282" y="420" type="curve" smooth="yes"/>
      <point x="327" y="420"/>
      <point x="363" y="397"/>
      <point x="385" y="372" type="curve"/>
      <point x="385" y="147" type="line"/>
      <point x="362" y="121"/>
      <point x="323" y="98"/>
    </contour>
  </outline>
</glyph>
<glyph name="e" format="1">
  <advance width="546"/>
  <unicode hex="0065"/>
  <outline>
    <contour>
      <point x="293" y="-13" type="curve" smooth="yes"/>
      <point x="391" y="-13"/>
      <point x="458" y="12"/>
      <point x="502" y="64" type="curve"/>
      <point x="430" y="140" type="line"/>
      <point x="396" y="109"/>
      <point x="363" y="97"/>
      <point x="303" y="97" type="curve" smooth="yes"/>
      <point x="221" y="97"/>
      <point x="184" y="141"/>
      <point x="179" y="218" type="curve" smooth="yes"/>
      <point x="179" y="219"/>
      <point x="179" y="221"/>
      <point x="179" y="223" type="curve"/>
      <point x="509" y="223" type="line"/>
      <point x="509" y="291" type="line"/>
      <point x="509" y="440"/>
      <point x="433" y="531"/>
      <point x="284" y="531" type="curve" smooth="yes"/>
      <point x="128" y="531"/>
      <point x="44" y="430"/>
      <point x="42" y="264" type="curve" smooth="yes"/>
      <point x="42" y="262"/>
      <point x="42" y="253"/>
      <point x="42" y="251" type="curve" smooth="yes"/>
      <point x="42" y="85"/>
      <point x="129" y="-13"/>
    </contour>
    <contour>
      <point x="181" y="312" type="line"/>
      <point x="190" y="380"/>
      <point x="212" y="427"/>
      <point x="283" y="427" type="curve" smooth="yes"/>
      <point x="346" y="427"/>
      <point x="378" y="389"/>
      <point x="378" y="320" type="curve" smooth="yes"/>
      <point x="378" y="319"/>
      <point x="378" y="313"/>
      <point x="378" y="312" type="curve"/>
    </contour>
  </outline>
</glyph>
<glyph name="f" format="1">
  <advance width="335"/>
  <unicode hex="0066"/>
  <outline>
    <contour>
      <point x="86" y="0" type="line"/>
      <point x="218" y="0" type="line"/>
      <point x="218" y="418" type="line"/>
      <point x="323" y="418" type="line"/>
      <point x="323" y="518" type="line"/>
      <point x="218" y="518" type="line"/>
      <point x="218" y="572" type="line" smooth="yes"/>
      <point x="218" y="622"/>
      <point x="236" y="644"/>
      <point x="286" y="644" type="curve" smooth="yes"/>
      <point x="307" y="644"/>
      <point x="325" y="640"/>
      <point x="346" y="634" type="curve"/>
      <point x="365" y="743" type="line"/>
      <point x="335" y="750"/>
      <point x="307" y="754"/>
      <point x="277" y="754" type="curve" smooth="yes"/>
      <point x="153" y="754"/>
      <point x="86" y="696"/>
      <point x="86" y="572" type="curve"/>
      <point x="86" y="518" type="line"/>
      <point x="15" y="518" type="line"/>
      <point x="15" y="418" type="line"/>
      <point x="86" y="418" type="line"/>
    </contour>
  </outline>
</glyph>
<glyph name="g" format="1">
  <advance width="582"/>
  <unicode hex="0067"/>
  <outline>
    <contour>
      <point x="256" y="-201" type="curve" smooth="yes"/>
      <point x="416" y="-201"/>
      <point x="518" y="-143"/>
      <point x="518" y="7" type="curve"/>
      <point x="518" y="518" type="line"/>
      <point x="411" y="518" type="line"/>
      <point x="396" y="463" type="line"/>
      <point x="366" y="499"/>
      <point x="315" y="531"/>
      <point x="253" y="531" type="curve" smooth="yes"/>
      <point x="115" y="531"/>
      <point x="42" y="419"/>
      <point x="40" y="267" type="curve" smooth="yes"/>
      <point x="40" y="265"/>
      <point x="40" y="259"/>
      <point x="40" y="257" type="curve" smooth="yes"/>
      <point x="40" y="109"/>
      <point x="104" y="-4"/>
      <point x="243" y="-4" type="curve" smooth="yes"/>
      <point x="303" y="-4"/>
      <point x="349" y="17"/>
      <point x="385" y="55" type="curve"/>
      <point x="385" y="10" type="line" smooth="yes"/>
      <point x="385" y="-68"/>
      <point x="340" y="-89"/>
      <point x="256" y="-89" type="curve" smooth="yes"/>
      <point x="199" y="-89"/>
      <point x="149" y="-77"/>
      <point x="101" y="-54" type="curve"/>
      <point x="69" y="-158" type="line"/>
      <point x="120" y="-184"/>
      <point x="186" y="-201"/>
    </contour>
    <contour>
      <point x="276" y="107" type="curve" smooth="yes"/>
      <point x="209" y="107"/>
      <point x="175" y="163"/>
      <point x="175" y="258" type="curve" smooth="yes"/>
      <point x="175" y="258"/>
      <point x="175" y="263"/>
      <point x="175" y="264" type="curve" smooth="yes"/>
      <point x="176" y="343"/>
      <point x="208" y="420"/>
      <point x="281" y="420" type="curve" smooth="yes"/>
      <point x="324" y="420"/>
      <point x="357" y="403"/>
      <point x="385" y="373" type="curve"/>
      <point x="385" y="155" type="line"/>
      <point x="354" y="124"/>
      <point x="319" y="107"/>
    </contour>
  </outline>
</glyph>
<glyph name="h" format="1">
  <advance width="582"/>
  <unicode hex="0068"/>
  <outline>
    <contour>
      <point x="63" y="741" type="line"/>
      <point x="63" y="0" type="line"/>
      <point x="196" y="0" type="line"/>
      <point x="196" y="360" type="line"/>
      <point x="235" y="399"/>
      <point x="274" y="420"/>
      <point x="312" y="420" type="curve" smooth="yes"/>
      <point x="370" y="420"/>
      <point x="388" y="389"/>
      <point x="388" y="295" type="curve"/>
      <point x="388" y="0" type="line"/>
      <point x="521" y="0" type="line"/>
      <point x="521" y="330" type="line" smooth="yes"/>
      <point x="521" y="454"/>
      <point x="476" y="531"/>
      <point x="357" y="531" type="curve" smooth="yes"/>
      <point x="286" y="531"/>
      <point x="233" y="494"/>
      <point x="196" y="452" type="curve"/>
      <point x="196" y="741" type="line"/>
    </contour>
  </outline>
</glyph>
<glyph name="i" format="1">
  <advance width="268"/>
  <unicode hex="0069"/>
  <outline>
    <contour>
      <point x="67" y="0" type="line"/>
      <point x="200" y="0" type="line"/>
      <point x="200" y="518" type="line"/>
      <point x="67" y="518" type="line"/>
    </contour>
    <contour>
      <point x="134" y="610" type="curve" smooth="yes"/>
      <point x="178" y="610"/>
      <point x="204" y="634"/>
      <point x="204" y="675" type="curve" smooth="yes"/>
      <point x="204" y="715"/>
      <point x="178" y="739"/>
      <point x="134" y="739" type="curve" smooth="yes"/>
      <point x="89" y="739"/>
      <point x="63" y="715"/>
      <point x="63" y="675" type="curve" smooth="yes"/>
      <point x="63" y="634"/>
      <point x="89" y="610"/>
    </contour>
  </outline>
</glyph>
<glyph name="j" format="1">
  <advance width="270"/>
  <unicode hex="006A"/>
  <outline>
    <contour>
      <point x="26" y="-201" type="curve" smooth="yes"/>
      <point x="148" y="-201"/>
      <point x="206" y="-143"/>
      <point x="206" y="-21" type="curve" smooth="yes"/>
      <point x="206" y="518" type="line"/>
      <point x="73" y="518" type="line"/>
      <point x="73" y="3" type="line"/>
      <point x="73" y="-60"/>
      <point x="63" y="-91"/>
      <point x="15" y="-91" type="curve" smooth="yes"/>
      <point x="-7" y="-91"/>
      <point x="-28" y="-87"/>
      <point x="-48" y="-80" type="curve"/>
      <point x="-67" y="-189" type="line"/>
      <point x="-45" y="-195"/>
      <point x="-1" y="-201"/>
    </contour>
    <contour>
      <point x="166" y="615" type="curve" smooth="yes"/>
      <point x="195" y="615"/>
      <point x="209" y="667"/>
      <point x="209" y="696" type="curve" smooth="yes"/>
      <point x="209" y="725"/>
      <point x="138" y="734"/>
      <point x="109" y="734" type="curve" smooth="yes"/>
      <point x="79" y="734"/>
      <point x="67" y="682"/>
      <point x="67" y="654" type="curve" smooth="yes"/>
      <point x="67" y="626"/>
      <point x="137" y="615"/>
    </contour>
  </outline>
</glyph>
<glyph name="k" format="1">
  <advance width="536"/>
  <unicode hex="006B"/>
  <outline>
    <contour>
      <point x="65" y="741" type="line"/>
      <point x="65" y="0" type="line"/>
      <point x="197" y="0" type="line"/>
      <point x="197" y="174" type="line"/>
      <point x="238" y="223" type="line"/>
      <point x="383" y="0" type="line"/>
      <point x="534" y="0" type="line"/>
      <point x="334" y="294" type="line"/>
      <point x="517" y="518" type="line"/>
      <point x="363" y="518" type="line"/>
      <point x="197" y="300" type="line"/>
      <point x="197" y="741" type="line"/>
    </contour>
  </outline>
</glyph>
<glyph name="l" format="1">
  <advance width="268"/>
  <unicode hex="006C"/>
  <outline>
    <contour>
      <point x="67" y="741" type="line"/>
      <point x="67" y="0" type="line"/>
      <point x="200" y="0" type="line"/>
      <point x="200" y="741" type="line"/>
    </contour>
  </outline>
</glyph>
<glyph name="m" format="1">
  <advance width="870"/>
  <unicode hex="006D"/>
  <outline>
    <contour>
      <point x="65" y="0" type="line"/>
      <point x="197" y="0" type="line"/>
      <point x="197" y="359" type="line"/>
      <point x="233" y="400"/>
      <point x="268" y="420"/>
      <point x="304" y="420" type="curve" smooth="yes"/>
      <point x="361" y="420"/>
      <point x="370" y="396"/>
      <point x="370" y="309" type="curve"/>
      <point x="370" y="0" type="line"/>
      <point x="502" y="0" type="line"/>
      <point x="502" y="143"/>
      <point x="502" y="351"/>
      <point x="502" y="356" type="curve"/>
      <point x="532" y="392"/>
      <point x="570" y="420"/>
      <point x="610" y="420" type="curve" smooth="yes"/>
      <point x="674" y="420"/>
      <point x="676" y="373"/>
      <point x="676" y="309" type="curve"/>
      <point x="676" y="0" type="line"/>
      <point x="809" y="0" type="line"/>
      <point x="809" y="333" type="line" smooth="yes"/>
      <point x="809" y="457"/>
      <point x="769" y="531"/>
      <point x="655" y="531" type="curve" smooth="yes"/>
      <point x="584" y="531"/>
      <point x="536" y="498"/>
      <point x="490" y="443" type="curve"/>
      <point x="471" y="502"/>
      <point x="430" y="531"/>
      <point x="352" y="531" type="curve" smooth="yes"/>
      <point x="285" y="531"/>
      <point x="235" y="499"/>
      <point x="195" y="451" type="curve"/>
      <point x="193" y="518" type="line"/>
      <point x="65" y="518" type="line"/>
    </contour>
  </outline>
</glyph>
<glyph name="n" format="1">
  <advance width="582"/>
  <unicode hex="006E"/>
  <outline>
    <contour>
      <point x="63" y="0" type="line"/>
      <point x="196" y="0" type="line"/>
      <point x="196" y="358" type="line"/>
      <point x="235" y="398"/>
      <point x="274" y="420"/>
      <point x="312" y="420" type="curve" smooth="yes"/>
      <point x="370" y="420"/>
      <point x="389" y="391"/>
      <point x="389" y="301" type="curve"/>
      <point x="389" y="0" type="line"/>
      <point x="521" y="0" type="line"/>
      <point x="521" y="337" type="line" smooth="yes"/>
      <point x="521" y="461"/>
      <point x="477" y="531"/>
      <point x="360" y="531" type="curve" smooth="yes"/>
      <point x="286" y="531"/>
      <point x="232" y="493"/>
      <point x="195" y="449" type="curve"/>
      <point x="192" y="518" type="line"/>
      <point x="63" y="518" type="line"/>
    </contour>
  </outline>
</glyph>
<glyph name="o" format="1">
  <advance width="574"/>
  <unicode hex="006F"/>
  <outline>
    <contour>
      <point x="287" y="-13" type="curve" smooth="yes"/>
      <point x="452" y="-13"/>
      <point x="534" y="91"/>
      <point x="534" y="257" type="curve" smooth="yes"/>
      <point x="534" y="258"/>
      <point x="534" y="263"/>
      <point x="534" y="264" type="curve" smooth="yes"/>
      <point x="533" y="428"/>
      <point x="451" y="531"/>
      <point x="287" y="531" type="curve" smooth="yes"/>
      <point x="123" y="531"/>
      <point x="41" y="428"/>
      <point x="40" y="264" type="curve" smooth="yes"/>
      <point x="40" y="263"/>
      <point x="40" y="258"/>
      <point x="40" y="257" type="curve" smooth="yes"/>
      <point x="40" y="85"/>
      <point x="127" y="-13"/>
    </contour>
    <contour>
      <point x="287" y="97" type="curve" smooth="yes"/>
      <point x="200" y="97"/>
      <point x="175" y="164"/>
      <point x="175" y="257" type="curve" smooth="yes"/>
      <point x="175" y="258"/>
      <point x="175" y="262"/>
      <point x="175" y="263" type="curve" smooth="yes"/>
      <point x="175" y="354"/>
      <point x="201" y="421"/>
      <point x="287" y="421" type="curve" smooth="yes"/>
      <point x="374" y="421"/>
      <point x="399" y="355"/>
      <point x="399" y="263" type="curve" smooth="yes"/>
      <point x="399" y="262"/>
      <point x="399" y="257"/>
      <point x="399" y="257" type="curve" smooth="yes"/>
      <point x="399" y="164"/>
      <point x="374" y="97"/>
    </contour>
  </outline>
</glyph>
<glyph name="p" format="1">
  <advance width="582"/>
  <unicode hex="0070"/>
  <outline>
    <contour>
      <point x="65" y="-197" type="line"/>
      <point x="197" y="-197" type="line"/>
      <point x="197" y="43" type="line"/>
      <point x="232" y="8"/>
      <point x="277" y="-13"/>
      <point x="336" y="-13" type="curve" smooth="yes"/>
      <point x="469" y="-13"/>
      <point x="542" y="102"/>
      <point x="542" y="256" type="curve" smooth="yes"/>
      <point x="542" y="258"/>
      <point x="542" y="264"/>
      <point x="542" y="266" type="curve" smooth="yes"/>
      <point x="540" y="415"/>
      <point x="482" y="531"/>
      <point x="340" y="531" type="curve" smooth="yes"/>
      <point x="270" y="531"/>
      <point x="225" y="503"/>
      <point x="189" y="464" type="curve"/>
      <point x="185" y="518" type="line"/>
      <point x="65" y="518" type="line"/>
    </contour>
    <contour>
      <point x="300" y="97" type="curve" smooth="yes"/>
      <point x="255" y="97"/>
      <point x="218" y="118"/>
      <point x="197" y="143" type="curve"/>
      <point x="197" y="370" type="line"/>
      <point x="219" y="397"/>
      <point x="259" y="420"/>
      <point x="305" y="420" type="curve" smooth="yes"/>
      <point x="382" y="420"/>
      <point x="407" y="345"/>
      <point x="407" y="261" type="curve" smooth="yes"/>
      <point x="407" y="260"/>
      <point x="407" y="256"/>
      <point x="407" y="255" type="curve" smooth="yes"/>
      <point x="407" y="172"/>
      <point x="377" y="97"/>
    </contour>
  </outline>
</glyph>
<glyph name="q" format="1">
  <advance width="582"/>
  <unicode hex="0071"/>
  <outline>
    <contour>
      <point x="384" y="-197" type="line"/>
      <point x="517" y="-197" type="line"/>
      <point x="517" y="518" type="line"/>
      <point x="411" y="518" type="line"/>
      <point x="395" y="464" type="line"/>
      <point x="365" y="500"/>
      <point x="315" y="531"/>
      <point x="251" y="531" type="curve" smooth="yes"/>
      <point x="106" y="531"/>
      <point x="41" y="411"/>
      <point x="40" y="259" type="curve" smooth="yes"/>
      <point x="40" y="258"/>
      <point x="40" y="253"/>
      <point x="40" y="251" type="curve" smooth="yes"/>
      <point x="40" y="101"/>
      <point x="100" y="-13"/>
      <point x="242" y="-13" type="curve" smooth="yes"/>
      <point x="299" y="-13"/>
      <point x="346" y="8"/>
      <point x="384" y="44" type="curve"/>
    </contour>
    <contour>
      <point x="276" y="97" type="curve" smooth="yes"/>
      <point x="197" y="97"/>
      <point x="175" y="168"/>
      <point x="175" y="252" type="curve" smooth="yes"/>
      <point x="175" y="253"/>
      <point x="175" y="258"/>
      <point x="175" y="258" type="curve" smooth="yes"/>
      <point x="176" y="342"/>
      <point x="205" y="421"/>
      <point x="282" y="421" type="curve" smooth="yes"/>
      <point x="326" y="421"/>
      <point x="362" y="399"/>
      <point x="384" y="374" type="curve"/>
      <point x="384" y="146" type="line"/>
      <point x="362" y="120"/>
      <point x="322" y="97"/>
    </contour>
  </outline>
</glyph>
<glyph name="r" format="1">
  <advance width="386"/>
  <unicode hex="0072"/>
  <outline>
    <contour>
      <point x="65" y="0" type="line"/>
      <point x="197" y="0" type="line"/>
      <point x="197" y="343" type="line"/>
      <point x="229" y="380"/>
      <point x="264" y="402"/>
      <point x="309" y="402" type="curve" smooth="yes"/>
      <point x="321" y="402"/>
      <point x="353" y="400"/>
      <point x="361" y="396" type="curve"/>
      <point x="382" y="519" type="line"/>
      <point x="370" y="525"/>
      <point x="355" y="527"/>
      <point x="333" y="527" type="curve" smooth="yes"/>
      <point x="272" y="527"/>
      <point x="229" y="490"/>
      <point x="195" y="443" type="curve"/>
      <point x="193" y="518" type="line"/>
      <point x="65" y="518" type="line"/>
    </contour>
  </outline>
</glyph>
<glyph name="s" format="1">
  <advance width="506"/>
  <unicode hex="0073"/>
  <outline>
    <contour>
      <point x="256" y="-13" type="curve" smooth="yes"/>
      <point x="370" y="-13"/>
      <point x="469" y="38"/>
      <point x="469" y="148" type="curve" smooth="yes"/>
      <point x="469" y="206"/>
      <point x="444" y="242"/>
      <point x="404" y="268" type="curve" smooth="yes"/>
      <point x="377" y="286"/>
      <point x="332" y="303"/>
      <point x="271" y="317" type="curve" smooth="yes"/>
      <point x="233" y="325"/>
      <point x="208" y="334"/>
      <point x="195" y="343" type="curve" smooth="yes"/>
      <point x="182" y="352"/>
      <point x="176" y="364"/>
      <point x="176" y="378" type="curve" smooth="yes"/>
      <point x="176" y="414"/>
      <point x="212" y="430"/>
      <point x="253" y="430" type="curve" smooth="yes"/>
      <point x="302" y="430"/>
      <point x="337" y="410"/>
      <point x="351" y="370" type="curve"/>
      <point x="462" y="411" type="line"/>
      <point x="461" y="412"/>
      <point x="461" y="415"/>
      <point x="460" y="416" type="curve" smooth="yes"/>
      <point x="438" y="491"/>
      <point x="354" y="531"/>
      <point x="254" y="531" type="curve" smooth="yes"/>
      <point x="133" y="531"/>
      <point x="46" y="472"/>
      <point x="46" y="373" type="curve" smooth="yes"/>
      <point x="46" y="329"/>
      <point x="61" y="294"/>
      <point x="90" y="268" type="curve" smooth="yes"/>
      <point x="119" y="242"/>
      <point x="167" y="221"/>
      <point x="233" y="207" type="curve" smooth="yes"/>
      <point x="271" y="198"/>
      <point x="298" y="189"/>
      <point x="314" y="180" type="curve" smooth="yes"/>
      <point x="330" y="171"/>
      <point x="339" y="158"/>
      <point x="339" y="142" type="curve" smooth="yes"/>
      <point x="339" y="105"/>
      <point x="307" y="88"/>
      <point x="252" y="88" type="curve" smooth="yes"/>
      <point x="196" y="88"/>
      <point x="160" y="107"/>
      <point x="144" y="151" type="curve"/>
      <point x="35" y="112" type="line"/>
      <point x="35" y="110"/>
      <point x="36" y="107"/>
      <point x="36" y="105" type="curve" smooth="yes"/>
      <point x="60" y="36"/>
      <point x="139" y="-13"/>
    </contour>
  </outline>
</glyph>
<glyph name="u" format="1">
  <advance width="582"/>
  <unicode hex="0075"/>
  <outline>
    <contour>
      <point x="386" y="518" type="line"/>
      <point x="386" y="160" type="line"/>
      <point x="347" y="119"/>
      <point x="306" y="98"/>
      <point x="266" y="98" type="curve" smooth="yes"/>
      <point x="200" y="98"/>
      <point x="193" y="148"/>
      <point x="193" y="219" type="curve"/>
      <point x="193" y="518" type="line"/>
      <point x="61" y="518" type="line"/>
      <point x="61" y="186" type="line" smooth="yes"/>
      <point x="61" y="62"/>
      <point x="106" y="-13"/>
      <point x="225" y="-13" type="curve" smooth="yes"/>
      <point x="296" y="-13"/>
      <point x="356" y="27"/>
      <point x="389" y="70" type="curve"/>
      <point x="394" y="0" type="line"/>
      <point x="519" y="0" type="line"/>
      <point x="519" y="518" type="line"/>
    </contour>
  </outline>
</glyph>
<glyph name="v" format="1">
  <advance width="508"/>
  <unicode hex="0076"/>
  <outline>
    <contour>
      <point x="363" y="518" type="line"/>
      <point x="271" y="212" type="line"/>
      <point x="257" y="164" type="line"/>
      <point x="255" y="164" type="line"/>
      <point x="242" y="213" type="line"/>
      <point x="148" y="518" type="line"/>
      <point x="11" y="518" type="line"/>
      <point x="192" y="0" type="line"/>
      <point x="316" y="0" type="line"/>
      <point x="498" y="518" type="line"/>
    </contour>
  </outline>
</glyph>
<glyph name="w" format="1">
  <advance width="752"/>
  <unicode hex="0077"/>
  <outline>
    <contour>
      <point x="609" y="518" type="line"/>
      <point x="536" y="187" type="line"/>
      <point x="534" y="187" type="line"/>
      <point x="426" y="518" type="line"/>
      <point x="330" y="518" type="line"/>
      <point x="223" y="185" type="line"/>
      <point x="221" y="185" type="line"/>
      <point x="146" y="518" type="line"/>
      <point x="13" y="518" type="line"/>
      <point x="151" y="0" type="line"/>
      <point x="268" y="0" type="line"/>
      <point x="376" y="321" type="line"/>
      <point x="378" y="321" type="line"/>
      <point x="486" y="0" type="line"/>
      <point x="602" y="0" type="line"/>
      <point x="739" y="518" type="line"/>
    </contour>
  </outline>
</glyph>
<glyph name="x" format="1">
  <advance width="520"/>
  <unicode hex="0078"/>
  <outline>
    <contour>
      <point x="358" y="518" type="line"/>
      <point x="263" y="354" type="line"/>
      <point x="261" y="354" type="line"/>
      <point x="169" y="518" type="line"/>
      <point x="16" y="518" type="line"/>
      <point x="185" y="259" type="line"/>
      <point x="13" y="0" type="line"/>
      <point x="161" y="0" type="line"/>
      <point x="259" y="168" type="line"/>
      <point x="355" y="0" type="line"/>
      <point x="509" y="0" type="line"/>
      <point x="337" y="263" type="line"/>
      <point x="506" y="518" type="line"/>
    </contour>
  </outline>
</glyph>
<glyph name="y" format="1">
  <advance width="521"/>
  <unicode hex="0079"/>
  <outline>
    <contour>
      <point x="375" y="518" type="line"/>
      <point x="261" y="188" type="line"/>
      <point x="259" y="188" type="line"/>
      <point x="149" y="518" type="line"/>
      <point x="9" y="518" type="line"/>
      <point x="195" y="21" type="line"/>
      <point x="180" y="-13" type="line" smooth="yes"/>
      <point x="157" y="-70"/>
      <point x="132" y="-90"/>
      <point x="91" y="-90" type="curve" smooth="yes"/>
      <point x="74" y="-90"/>
      <point x="54" y="-86"/>
      <point x="35" y="-81" type="curve"/>
      <point x="12" y="-188" type="line"/>
      <point x="45" y="-196"/>
      <point x="73" y="-201"/>
      <point x="107" y="-201" type="curve" smooth="yes"/>
      <point x="222" y="-201"/>
      <point x="261" y="-140"/>
      <point x="296" y="-53" type="curve"/>
      <point x="513" y="518" type="line"/>
    </contour>
  </outline>
</glyph>
<glyph name="z" format="1">
  <advance width="476"/>
  <unicode hex="007A"/>
  <outline>
    <contour>
      <point x="38" y="518" type="line"/>
      <point x="38" y="414" type="line"/>
      <point x="275" y="414" type="line"/>
      <point x="32" y="89" type="line"/>
      <point x="32" y="0" type="line"/>
      <point x="446" y="0" type="line"/>
      <point x="446" y="104" type="line"/>
      <point x="192" y="104" type="line"/>
      <point x="438" y="431" type="line"/>
      <point x="438" y="518" type="line"/>
    </contour>
  </outline>
</glyph>
<glyph name="braceleft" format="1">
  <advance width="400"/>
  <unicode hex="007B"/>
  <outline>
    <contour>
      <point x="216" y="745"/>
      <point x="153" y="680"/>
      <point x="153" y="548" type="curve"/>
      <point x="153" y="467" type="line" smooth="yes"/>
      <point x="153" y="391"/>
      <point x="123" y="338"/>
      <point x="39" y="338" type="curve"/>
      <point x="39" y="234" type="line"/>
      <point x="122" y="234"/>
      <point x="153" y="179"/>
      <point x="153" y="105" type="curve"/>
      <point x="153" y="24" type="line" smooth="yes"/>
      <point x="153" y="-109"/>
      <point x="217" y="-174"/>
      <point x="365" y="-186" type="curve"/>
      <point x="375" y="-95" type="line"/>
      <point x="295" y="-86"/>
      <point x="274" y="-49"/>
      <point x="274" y="28" type="curve"/>
      <point x="274" y="116" type="line" smooth="yes"/>
      <point x="274" y="201"/>
      <point x="230" y="260"/>
      <point x="169" y="285" type="curve"/>
      <point x="230" y="313"/>
      <point x="274" y="369"/>
      <point x="274" y="455" type="curve"/>
      <point x="274" y="543" type="line" smooth="yes"/>
      <point x="274" y="619"/>
      <point x="295" y="658"/>
      <point x="375" y="666" type="curve"/>
      <point x="365" y="757" type="line"/>
    </contour>
  </outline>
</glyph>
<glyph name="bar" format="1">
  <advance width="336"/>
  <unicode hex="007C"/>
  <outline>
    <contour>
      <point x="116" y="730" type="line"/>
      <point x="116" y="-169" type="line"/>
      <point x="220" y="-169" type="line"/>
      <point x="220" y="730" type="line"/>
    </contour>
  </outline>
</glyph>
<glyph name="asciitilde" format="1">
  <advance width="664"/>
  <unicode hex="007E"/>
  <outline>
    <contour>
      <point x="133" y="434"/>
      <point x="88" y="385"/>
      <point x="62" y="325" type="curve"/>
      <point x="102" y="252" type="line"/>
      <point x="127" y="291"/>
      <point x="167" y="329"/>
      <point x="218" y="329" type="curve" smooth="yes"/>
      <point x="247" y="329"/>
      <point x="277" y="313"/>
      <point x="314" y="290" type="curve" smooth="yes"/>
      <point x="356" y="260"/>
      <point x="398" y="241"/>
      <point x="451" y="241" type="curve" smooth="yes"/>
      <point x="528" y="241"/>
      <point x="579" y="296"/>
      <point x="603" y="353" type="curve"/>
      <point x="563" y="423" type="line"/>
      <point x="531" y="380"/>
      <point x="493" y="346"/>
      <point x="447" y="346" type="curve" smooth="yes"/>
      <point x="416" y="346"/>
      <point x="385" y="362"/>
      <point x="350" y="385" type="curve" smooth="yes"/>
      <point x="314" y="410"/>
      <point x="271" y="434"/>
      <point x="216" y="434" type="curve" smooth="yes"/>
    </contour>
  </outline>
</glyph>
<glyph name="exclamdown" format="1">
  <advance width="284"/>
  <unicode hex="00A1"/>
  <outline>
    <contour>
      <point x="82" y="308" type="line"/>
      <point x="72" y="-189" type="line"/>
      <point x="211" y="-189" type="line"/>
      <point x="202" y="308" type="line"/>
    </contour>
    <contour>
      <point x="135" y="536"/>
      <point x="65" y="524"/>
      <point x="65" y="491" type="curve" smooth="yes"/>
      <point x="65" y="458"/>
      <point x="79" y="396"/>
      <point x="113" y="396" type="curve" smooth="yes"/>
      <point x="148" y="396"/>
      <point x="218" y="407"/>
      <point x="218" y="441" type="curve" smooth="yes"/>
      <point x="218" y="474"/>
      <point x="204" y="536"/>
      <point x="170" y="536" type="curve" smooth="yes"/>
    </contour>
  </outline>
</glyph>
<glyph name="cent" format="1">
  <advance width="541"/>
  <unicode hex="00A2"/>
  <outline>
    <contour>
      <point x="0" y="10" type="line"/>
      <point x="0" y="0" type="line"/>
      <point x="541" y="0" type="line"/>
      <point x="541" y="10" type="line"/>
    </contour>
  </outline>
</glyph>
<glyph name="sterling" format="1">
  <advance width="612"/>
  <unicode hex="00A3"/>
  <outline>
    <contour>
      <point x="205" y="702"/>
      <point x="108" y="634"/>
      <point x="108" y="501" type="curve" smooth="yes"/>
      <point x="108" y="481"/>
      <point x="116" y="419"/>
      <point x="125" y="380" type="curve"/>
      <point x="55" y="380" type="line"/>
      <point x="55" y="280" type="line"/>
      <point x="131" y="280" type="line"/>
      <point x="131" y="257"/>
      <point x="130" y="220"/>
      <point x="126" y="207" type="curve" smooth="yes"/>
      <point x="120" y="166"/>
      <point x="103" y="118"/>
      <point x="67" y="107" type="curve" smooth="yes"/>
      <point x="65" y="107"/>
      <point x="62" y="106"/>
      <point x="60" y="106" type="curve"/>
      <point x="60" y="0" type="line"/>
      <point x="579" y="0" type="line"/>
      <point x="579" y="114" type="line"/>
      <point x="210" y="114" type="line"/>
      <point x="234" y="137"/>
      <point x="253" y="168"/>
      <point x="258" y="207" type="curve" smooth="yes"/>
      <point x="264" y="223"/>
      <point x="266" y="259"/>
      <point x="266" y="280" type="curve"/>
      <point x="442" y="280" type="line"/>
      <point x="442" y="380" type="line"/>
      <point x="262" y="380" type="line"/>
      <point x="250" y="417"/>
      <point x="243" y="478"/>
      <point x="243" y="493" type="curve" smooth="yes"/>
      <point x="243" y="555"/>
      <point x="278" y="595"/>
      <point x="341" y="595" type="curve" smooth="yes"/>
      <point x="397" y="595"/>
      <point x="436" y="562"/>
      <point x="450" y="516" type="curve"/>
      <point x="570" y="555" type="line"/>
      <point x="568" y="559"/>
      <point x="567" y="563"/>
      <point x="565" y="567" type="curve" smooth="yes"/>
      <point x="538" y="653"/>
      <point x="456" y="702"/>
      <point x="341" y="702" type="curve" smooth="yes"/>
    </contour>
  </outline>
</glyph>
<glyph name="currency" format="1">
  <advance width="651"/>
  <unicode hex="00A4"/>
  <outline>
    <contour>
      <point x="463" y="511" type="line"/>
      <point x="429" y="537"/>
      <point x="381" y="556"/>
      <point x="326" y="556" type="curve" smooth="yes"/>
      <point x="272" y="556"/>
      <point x="226" y="538"/>
      <point x="189" y="512" type="curve"/>
      <point x="120" y="581" type="line"/>
      <point x="56" y="516" type="line"/>
      <point x="126" y="447" type="line"/>
      <point x="100" y="408"/>
      <point x="84" y="362"/>
      <point x="84" y="308" type="curve" smooth="yes"/>
      <point x="84" y="257"/>
      <point x="99" y="212"/>
      <point x="124" y="172" type="curve"/>
      <point x="56" y="105" type="line"/>
      <point x="120" y="40" type="line"/>
      <point x="187" y="107" type="line"/>
      <point x="224" y="79"/>
      <point x="271" y="61"/>
      <point x="326" y="61" type="curve" smooth="yes"/>
      <point x="381" y="61"/>
      <point x="427" y="79"/>
      <point x="465" y="107" type="curve"/>
      <point x="533" y="40" type="line"/>
      <point x="597" y="105" type="line"/>
      <point x="528" y="172" type="line"/>
      <point x="553" y="211"/>
      <point x="568" y="257"/>
      <point x="568" y="308" type="curve" smooth="yes"/>
      <point x="568" y="361"/>
      <point x="552" y="407"/>
      <point x="526" y="447" type="curve"/>
      <point x="597" y="516" type="line"/>
      <point x="533" y="581" type="line"/>
    </contour>
    <contour>
      <point x="410" y="467"/>
      <point x="480" y="396"/>
      <point x="480" y="309" type="curve" smooth="yes"/>
      <point x="480" y="227"/>
      <point x="417" y="150"/>
      <point x="326" y="150" type="curve" smooth="yes"/>
      <point x="241" y="150"/>
      <point x="172" y="221"/>
      <point x="172" y="309" type="curve" smooth="yes"/>
      <point x="172" y="396"/>
      <point x="241" y="467"/>
      <point x="327" y="467" type="curve" smooth="yes"/>
    </contour>
  </outline>
</glyph>
<glyph name="yen" format="1">
  <advance width="619"/>
  <unicode hex="00A5"/>
  <outline>
    <contour>
      <point x="0" y="10" type="line"/>
      <point x="0" y="0" type="line"/>
      <point x="619" y="0" type="line"/>
      <point x="619" y="10" type="line"/>
    </contour>
  </outline>
</glyph>
<glyph name="brokenbar" format="1">
  <advance width="335"/>
  <unicode hex="00A6"/>
  <outline>
    <contour>
      <point x="107" y="185" type="line"/>
      <point x="107" y="-169" type="line"/>
      <point x="228" y="-169" type="line"/>
      <point x="228" y="185" type="line"/>
    </contour>
    <contour>
      <point x="107" y="730" type="line"/>
      <point x="107" y="383" type="line"/>
      <point x="228" y="383" type="line"/>
      <point x="228" y="730" type="line"/>
    </contour>
  </outline>
</glyph>
<glyph name="section" format="1">
  <advance width="576"/>
  <unicode hex="00A7"/>
  <outline>
    <contour>
      <point x="85" y="-160"/>
      <point x="167" y="-197"/>
      <point x="281" y="-197" type="curve" smooth="yes"/>
      <point x="406" y="-197"/>
      <point x="505" y="-148"/>
      <point x="505" y="-29" type="curve" smooth="yes"/>
      <point x="505" y="24"/>
      <point x="482" y="61"/>
      <point x="435" y="97" type="curve"/>
      <point x="495" y="130"/>
      <point x="529" y="176"/>
      <point x="529" y="240" type="curve" smooth="yes"/>
      <point x="529" y="294"/>
      <point x="504" y="332"/>
      <point x="470" y="362" type="curve" smooth="yes"/>
      <point x="444" y="385"/>
      <point x="402" y="408"/>
      <point x="344" y="431" type="curve" smooth="yes"/>
      <point x="281" y="463"/>
      <point x="241" y="484"/>
      <point x="225" y="497" type="curve" smooth="yes"/>
      <point x="209" y="510"/>
      <point x="201" y="524"/>
      <point x="201" y="540" type="curve" smooth="yes"/>
      <point x="201" y="577"/>
      <point x="236" y="598"/>
      <point x="296" y="598" type="curve" smooth="yes"/>
      <point x="350" y="598"/>
      <point x="392" y="575"/>
      <point x="408" y="534" type="curve"/>
      <point x="515" y="572" type="line"/>
      <point x="513" y="575"/>
      <point x="512" y="578"/>
      <point x="510" y="582" type="curve" smooth="yes"/>
      <point x="485" y="663"/>
      <point x="404" y="702"/>
      <point x="295" y="702" type="curve" smooth="yes"/>
      <point x="168" y="702"/>
      <point x="69" y="651"/>
      <point x="69" y="534" type="curve" smooth="yes"/>
      <point x="69" y="479"/>
      <point x="94" y="440"/>
      <point x="139" y="407" type="curve"/>
      <point x="80" y="374"/>
      <point x="45" y="327"/>
      <point x="45" y="264" type="curve" smooth="yes"/>
      <point x="45" y="220"/>
      <point x="61" y="183"/>
      <point x="91" y="155" type="curve" smooth="yes"/>
      <point x="121" y="126"/>
      <point x="167" y="99"/>
      <point x="229" y="72" type="curve" smooth="yes"/>
      <point x="280" y="49"/>
      <point x="317" y="28"/>
      <point x="339" y="13" type="curve" smooth="yes"/>
      <point x="361" y="-3"/>
      <point x="373" y="-19"/>
      <point x="373" y="-37" type="curve" smooth="yes"/>
      <point x="373" y="-77"/>
      <point x="325" y="-93"/>
      <point x="280" y="-93" type="curve" smooth="yes"/>
      <point x="221" y="-93"/>
      <point x="177" y="-74"/>
      <point x="162" y="-29" type="curve"/>
      <point x="55" y="-68" type="line"/>
      <point x="56" y="-72"/>
      <point x="58" y="-75"/>
      <point x="60" y="-78" type="curve" smooth="yes"/>
    </contour>
    <contour>
      <point x="378" y="183"/>
      <point x="360" y="165"/>
      <point x="338" y="152" type="curve"/>
      <point x="301" y="172"/>
      <point x="272" y="188"/>
      <point x="250" y="201" type="curve" smooth="yes"/>
      <point x="213" y="218"/>
      <point x="192" y="234"/>
      <point x="184" y="247" type="curve" smooth="yes"/>
      <point x="177" y="261"/>
      <point x="178" y="278"/>
      <point x="186" y="297" type="curve" smooth="yes"/>
      <point x="193" y="319"/>
      <point x="211" y="337"/>
      <point x="236" y="352" type="curve"/>
      <point x="269" y="333"/>
      <point x="297" y="320"/>
      <point x="325" y="302" type="curve" smooth="yes"/>
      <point x="356" y="289"/>
      <point x="381" y="274"/>
      <point x="389" y="255" type="curve" smooth="yes"/>
      <point x="397" y="241"/>
      <point x="396" y="225"/>
      <point x="387" y="206" type="curve" smooth="yes"/>
    </contour>
  </outline>
</glyph>
<glyph name="dieresis" format="1">
  <advance width="518"/>
  <unicode hex="00A8"/>
  <outline>
    <contour>
      <point x="100" y="719"/>
      <point x="75" y="696"/>
      <point x="75" y="656" type="curve" smooth="yes"/>
      <point x="75" y="616"/>
      <point x="100" y="592"/>
      <point x="142" y="592" type="curve" smooth="yes"/>
      <point x="185" y="592"/>
      <point x="211" y="616"/>
      <point x="211" y="656" type="curve" smooth="yes"/>
      <point x="211" y="696"/>
      <point x="185" y="719"/>
      <point x="142" y="719" type="curve" smooth="yes"/>
    </contour>
    <contour>
      <point x="328" y="719"/>
      <point x="303" y="696"/>
      <point x="303" y="656" type="curve" smooth="yes"/>
      <point x="303" y="616"/>
      <point x="328" y="592"/>
      <point x="370" y="592" type="curve" smooth="yes"/>
      <point x="413" y="592"/>
      <point x="439" y="616"/>
      <point x="439" y="656" type="curve" smooth="yes"/>
      <point x="439" y="696"/>
      <point x="413" y="719"/>
      <point x="370" y="719" type="curve" smooth="yes"/>
    </contour>
  </outline>
</glyph>
<glyph name="copyright" format="1">
  <advance width="841"/>
  <unicode hex="00A9"/>
  <outline>
    <contour>
      <point x="225" y="702"/>
      <point x="45" y="552"/>
      <point x="45" y="321" type="curve" smooth="yes"/>
      <point x="45" y="122"/>
      <point x="193" y="-62"/>
      <point x="420" y="-62" type="curve" smooth="yes"/>
      <point x="613" y="-62"/>
      <point x="793" y="90"/>
      <point x="793" y="321" type="curve" smooth="yes"/>
      <point x="793" y="520"/>
      <point x="646" y="702"/>
      <point x="420" y="702" type="curve" smooth="yes"/>
    </contour>
    <contour>
      <point x="297" y="539"/>
      <point x="233" y="463"/>
      <point x="232" y="337" type="curve" smooth="yes"/>
      <point x="232" y="336"/>
      <point x="232" y="312"/>
      <point x="232" y="310" type="curve" smooth="yes"/>
      <point x="232" y="180"/>
      <point x="299" y="105"/>
      <point x="424" y="105" type="curve" smooth="yes"/>
      <point x="507" y="105"/>
      <point x="551" y="131"/>
      <point x="589" y="215" type="curve" smooth="yes"/>
      <point x="590" y="217"/>
      <point x="591" y="220"/>
      <point x="592" y="223" type="curve"/>
      <point x="510" y="251" type="line"/>
      <point x="496" y="208"/>
      <point x="472" y="185"/>
      <point x="423" y="185" type="curve" smooth="yes"/>
      <point x="350" y="185"/>
      <point x="325" y="232"/>
      <point x="325" y="310" type="curve" smooth="yes"/>
      <point x="325" y="311"/>
      <point x="325" y="336"/>
      <point x="325" y="337" type="curve" smooth="yes"/>
      <point x="326" y="412"/>
      <point x="350" y="459"/>
      <point x="422" y="459" type="curve" smooth="yes"/>
      <point x="472" y="459"/>
      <point x="494" y="433"/>
      <point x="507" y="391" type="curve"/>
      <point x="588" y="421" type="line"/>
      <point x="587" y="423"/>
      <point x="586" y="426"/>
      <point x="585" y="429" type="curve" smooth="yes"/>
      <point x="562" y="500"/>
      <point x="511" y="539"/>
      <point x="423" y="539" type="curve" smooth="yes"/>
    </contour>
    <contour>
      <point x="575" y="632"/>
      <point x="722" y="509"/>
      <point x="722" y="321" type="curve" smooth="yes"/>
      <point x="722" y="156"/>
      <point x="602" y="8"/>
      <point x="420" y="8" type="curve" smooth="yes"/>
      <point x="263" y="8"/>
      <point x="116" y="133"/>
      <point x="116" y="321" type="curve" smooth="yes"/>
      <point x="116" y="482"/>
      <point x="236" y="632"/>
      <point x="420" y="632" type="curve" smooth="yes"/>
    </contour>
  </outline>
</glyph>
<glyph name="ordfeminine" format="1">
  <advance width="421"/>
  <unicode hex="00AA"/>
  <outline>
    <contour>
      <point x="0" y="10" type="line"/>
      <point x="0" y="0" type="line"/>
      <point x="421" y="0" type="line"/>
      <point x="421" y="10" type="line"/>
    </contour>
  </outline>
</glyph>
<glyph name="guillemotleft" format="1">
  <advance width="621"/>
  <unicode hex="00AB"/>
  <outline>
    <contour>
      <point x="0" y="10" type="line"/>
      <point x="0" y="0" type="line"/>
      <point x="621" y="0" type="line"/>
      <point x="621" y="10" type="line"/>
    </contour>
  </outline>
</glyph>
<glyph name="logicalnot" format="1">
  <advance width="638"/>
  <unicode hex="00AC"/>
  <outline>
    <contour>
      <point x="64" y="452" type="line"/>
      <point x="64" y="359" type="line"/>
      <point x="467" y="359" type="line"/>
      <point x="467" y="168" type="line"/>
      <point x="567" y="168" type="line"/>
      <point x="567" y="452" type="line"/>
    </contour>
  </outline>
</glyph>
<glyph name="registered" format="1">
  <advance width="841"/>
  <unicode hex="00AE"/>
  <outline>
    <contour>
      <point x="225" y="702"/>
      <point x="45" y="552"/>
      <point x="45" y="321" type="curve" smooth="yes"/>
      <point x="45" y="122"/>
      <point x="193" y="-62"/>
      <point x="420" y="-62" type="curve" smooth="yes"/>
      <point x="613" y="-62"/>
      <point x="793" y="90"/>
      <point x="793" y="321" type="curve" smooth="yes"/>
      <point x="793" y="520"/>
      <point x="646" y="702"/>
      <point x="420" y="702" type="curve" smooth="yes"/>
    </contour>
    <contour>
      <point x="575" y="632"/>
      <point x="722" y="509"/>
      <point x="722" y="321" type="curve" smooth="yes"/>
      <point x="722" y="156"/>
      <point x="602" y="8"/>
      <point x="420" y="8" type="curve" smooth="yes"/>
      <point x="263" y="8"/>
      <point x="116" y="133"/>
      <point x="116" y="321" type="curve" smooth="yes"/>
      <point x="116" y="482"/>
      <point x="236" y="632"/>
      <point x="420" y="632" type="curve" smooth="yes"/>
    </contour>
    <contour>
      <point x="270" y="535" type="line"/>
      <point x="270" y="120" type="line"/>
      <point x="359" y="120" type="line"/>
      <point x="359" y="276" type="line"/>
      <point x="409" y="276" type="line"/>
      <point x="502" y="120" type="line"/>
      <point x="608" y="120" type="line"/>
      <point x="502" y="292" type="line"/>
      <point x="543" y="307"/>
      <point x="578" y="342"/>
      <point x="578" y="408" type="curve" smooth="yes"/>
      <point x="578" y="504"/>
      <point x="518" y="535"/>
      <point x="419" y="535" type="curve"/>
    </contour>
    <contour>
      <point x="469" y="458"/>
      <point x="486" y="449"/>
      <point x="486" y="405" type="curve" smooth="yes"/>
      <point x="486" y="363"/>
      <point x="465" y="353"/>
      <point x="414" y="353" type="curve"/>
      <point x="359" y="353" type="line"/>
      <point x="359" y="458" type="line"/>
      <point x="420" y="458" type="line" smooth="yes"/>
    </contour>
  </outline>
</glyph>
<glyph name="macron" format="1">
  <advance width="506"/>
  <unicode hex="00AF"/>
  <outline>
    <contour>
      <point x="83" y="706" type="line"/>
      <point x="83" y="620" type="line"/>
      <point x="423" y="620" type="line"/>
      <point x="423" y="706" type="line"/>
    </contour>
  </outline>
</glyph>
<glyph name="degree" format="1">
  <advance width="409"/>
  <unicode hex="00B0"/>
  <outline>
    <contour>
      <point x="126" y="743"/>
      <point x="61" y="677"/>
      <point x="61" y="598" type="curve" smooth="yes"/>
      <point x="61" y="523"/>
      <point x="120" y="454"/>
      <point x="206" y="454" type="curve" smooth="yes"/>
      <point x="277" y="454"/>
      <point x="349" y="512"/>
      <point x="349" y="598" type="curve" smooth="yes"/>
      <point x="349" y="677"/>
      <point x="284" y="743"/>
      <point x="205" y="743" type="curve" smooth="yes"/>
    </contour>
    <contour>
      <point x="240" y="661"/>
      <point x="267" y="632"/>
      <point x="267" y="598" type="curve" smooth="yes"/>
      <point x="267" y="564"/>
      <point x="240" y="535"/>
      <point x="206" y="535" type="curve" smooth="yes"/>
      <point x="170" y="535"/>
      <point x="142" y="563"/>
      <point x="142" y="598" type="curve" smooth="yes"/>
      <point x="142" y="633"/>
      <point x="171" y="661"/>
      <point x="206" y="661" type="curve" smooth="yes"/>
    </contour>
  </outline>
</glyph>
<glyph name="plusminus" format="1">
  <advance width="632"/>
  <unicode hex="00B1"/>
  <outline>
    <contour>
      <point x="262" y="699" type="line"/>
      <point x="262" y="488" type="line"/>
      <point x="57" y="488" type="line"/>
      <point x="57" y="383" type="line"/>
      <point x="262" y="383" type="line"/>
      <point x="262" y="168" type="line"/>
      <point x="372" y="168" type="line"/>
      <point x="372" y="383" type="line"/>
      <point x="576" y="383" type="line"/>
      <point x="576" y="488" type="line"/>
      <point x="372" y="488" type="line"/>
      <point x="372" y="699" type="line"/>
    </contour>
    <contour>
      <point x="61" y="96" type="line"/>
      <point x="61" y="-8" type="line"/>
      <point x="564" y="-8" type="line"/>
      <point x="564" y="96" type="line"/>
    </contour>
  </outline>
</glyph>
<glyph name="twosuperior" format="1">
  <advance width="419"/>
  <unicode hex="00B2"/>
  <outline>
    <contour>
      <point x="127" y="722"/>
      <point x="53" y="679"/>
      <point x="53" y="604" type="curve" smooth="yes"/>
      <point x="53" y="600"/>
      <point x="53" y="597"/>
      <point x="54" y="594" type="curve"/>
      <point x="152" y="594" type="line"/>
      <point x="152" y="627"/>
      <point x="172" y="646"/>
      <point x="206" y="646" type="curve" smooth="yes"/>
      <point x="235" y="646"/>
      <point x="253" y="630"/>
      <point x="253" y="602" type="curve" smooth="yes"/>
      <point x="253" y="589"/>
      <point x="250" y="576"/>
      <point x="245" y="565" type="curve" smooth="yes"/>
      <point x="239" y="554"/>
      <point x="226" y="540"/>
      <point x="207" y="524" type="curve"/>
      <point x="56" y="401" type="line"/>
      <point x="56" y="326" type="line"/>
      <point x="359" y="326" type="line"/>
      <point x="359" y="401" type="line"/>
      <point x="190" y="401" type="line"/>
      <point x="189" y="404" type="line"/>
      <point x="243" y="450" type="line" smooth="yes"/>
      <point x="284" y="483"/>
      <point x="313" y="510"/>
      <point x="330" y="531" type="curve" smooth="yes"/>
      <point x="347" y="551"/>
      <point x="356" y="574"/>
      <point x="356" y="601" type="curve" smooth="yes"/>
      <point x="356" y="684"/>
      <point x="294" y="722"/>
      <point x="208" y="722" type="curve" smooth="yes"/>
    </contour>
  </outline>
</glyph>
<glyph name="threesuperior" format="1">
  <advance width="417"/>
  <unicode hex="00B3"/>
  <outline>
    <contour>
      <point x="128" y="722"/>
      <point x="53" y="687"/>
      <point x="53" y="618" type="curve" smooth="yes"/>
      <point x="53" y="614"/>
      <point x="53" y="611"/>
      <point x="54" y="609" type="curve"/>
      <point x="151" y="609" type="line"/>
      <point x="151" y="634"/>
      <point x="176" y="646"/>
      <point x="204" y="646" type="curve" smooth="yes"/>
      <point x="235" y="646"/>
      <point x="259" y="632"/>
      <point x="259" y="603" type="curve" smooth="yes"/>
      <point x="259" y="569"/>
      <point x="235" y="556"/>
      <point x="199" y="556" type="curve"/>
      <point x="145" y="556" type="line"/>
      <point x="145" y="491" type="line"/>
      <point x="199" y="491" type="line" smooth="yes"/>
      <point x="238" y="491"/>
      <point x="266" y="476"/>
      <point x="266" y="440" type="curve" smooth="yes"/>
      <point x="266" y="409"/>
      <point x="238" y="396"/>
      <point x="206" y="396" type="curve" smooth="yes"/>
      <point x="171" y="396"/>
      <point x="146" y="407"/>
      <point x="146" y="439" type="curve"/>
      <point x="47" y="439" type="line"/>
      <point x="46" y="437"/>
      <point x="46" y="433"/>
      <point x="46" y="430" type="curve" smooth="yes"/>
      <point x="46" y="354"/>
      <point x="126" y="320"/>
      <point x="207" y="320" type="curve" smooth="yes"/>
      <point x="294" y="320"/>
      <point x="368" y="353"/>
      <point x="368" y="435" type="curve" smooth="yes"/>
      <point x="368" y="485"/>
      <point x="337" y="512"/>
      <point x="297" y="526" type="curve"/>
      <point x="330" y="540"/>
      <point x="362" y="568"/>
      <point x="362" y="610" type="curve" smooth="yes"/>
      <point x="362" y="691"/>
      <point x="287" y="722"/>
      <point x="201" y="722" type="curve" smooth="yes"/>
    </contour>
  </outline>
</glyph>
<glyph name="acute" format="1">
  <advance width="447"/>
  <unicode hex="00B4"/>
  <outline>
    <contour>
      <point x="217" y="748" type="line"/>
      <point x="123" y="591" type="line"/>
      <point x="229" y="591" type="line"/>
      <point x="370" y="748" type="line"/>
    </contour>
  </outline>
</glyph>
<glyph name="paragraph" format="1">
  <advance width="597"/>
  <unicode hex="00B6"/>
  <outline>
    <contour>
      <point x="0" y="10" type="line"/>
      <point x="0" y="0" type="line"/>
      <point x="597" y="0" type="line"/>
      <point x="597" y="10" type="line"/>
    </contour>
  </outline>
</glyph>
<glyph name="periodcentered" format="1">
  <advance width="292"/>
  <unicode hex="00B7"/>
  <outline>
    <contour>
      <point x="82" y="426"/>
      <point x="69" y="362"/>
      <point x="69" y="329" type="curve" smooth="yes"/>
      <point x="69" y="296"/>
      <point x="138" y="282"/>
      <point x="173" y="282" type="curve" smooth="yes"/>
      <point x="207" y="282"/>
      <point x="221" y="346"/>
      <point x="221" y="379" type="curve" smooth="yes"/>
      <point x="221" y="414"/>
      <point x="151" y="426"/>
      <point x="116" y="426" type="curve" smooth="yes"/>
    </contour>
  </outline>
</glyph>
<glyph name="cedilla" format="1">
  <advance width="413"/>
  <unicode hex="00B8"/>
  <outline>
    <contour>
      <point x="161" y="13" type="line"/>
      <point x="129" y="-65" type="line"/>
      <point x="180" y="-68"/>
      <point x="210" y="-75"/>
      <point x="210" y="-101" type="curve" smooth="yes"/>
      <point x="210" y="-124"/>
      <point x="189" y="-131"/>
      <point x="162" y="-132" type="curve" smooth="yes"/>
      <point x="144" y="-132"/>
      <point x="125" y="-127"/>
      <point x="103" y="-118" type="curve"/>
      <point x="85" y="-192" type="line"/>
      <point x="103" y="-201"/>
      <point x="129" y="-205"/>
      <point x="164" y="-205" type="curve" smooth="yes"/>
      <point x="255" y="-205"/>
      <point x="314" y="-173"/>
      <point x="314" y="-104" type="curve" smooth="yes"/>
      <point x="314" y="-54"/>
      <point x="284" y="-25"/>
      <point x="243" y="-17" type="curve"/>
      <point x="254" y="13" type="line"/>
    </contour>
    <contour>
      <point x="204" y="0" type="move" name="_bot"/>
    </contour>
  </outline>
</glyph>
<glyph name="onesuperior" format="1">
  <advance width="386"/>
  <unicode hex="00B9"/>
  <outline>
    <contour>
      <point x="180" y="727" type="line"/>
      <point x="165" y="683"/>
      <point x="108" y="682"/>
      <point x="65" y="680" type="curve"/>
      <point x="65" y="604" type="line"/>
      <point x="157" y="604" type="line"/>
      <point x="157" y="320" type="line"/>
      <point x="272" y="320" type="line"/>
      <point x="272" y="729" type="line"/>
    </contour>
  </outline>
</glyph>
<glyph name="ordmasculine" format="1">
  <advance width="429"/>
  <unicode hex="00BA"/>
  <outline>
    <contour>
      <point x="0" y="10" type="line"/>
      <point x="0" y="0" type="line"/>
      <point x="429" y="0" type="line"/>
      <point x="429" y="10" type="line"/>
    </contour>
  </outline>
</glyph>
<glyph name="onequarter" format="1">
  <advance width="1075"/>
  <unicode hex="00BC"/>
  <outline>
    <contour>
      <point x="0" y="10" type="line"/>
      <point x="0" y="0" type="line"/>
      <point x="1075" y="0" type="line"/>
      <point x="1075" y="10" type="line"/>
    </contour>
  </outline>
</glyph>
<glyph name="onehalf" format="1">
  <advance width="789"/>
  <unicode hex="00BD"/>
  <outline>
    <contour>
      <point x="0" y="10" type="line"/>
      <point x="0" y="0" type="line"/>
      <point x="789" y="0" type="line"/>
      <point x="789" y="10" type="line"/>
    </contour>
  </outline>
</glyph>
<glyph name="threequarters" format="1">
  <advance width="1132"/>
  <unicode hex="00BE"/>
  <outline>
    <contour>
      <point x="0" y="10" type="line"/>
      <point x="0" y="0" type="line"/>
      <point x="1132" y="0" type="line"/>
      <point x="1132" y="10" type="line"/>
    </contour>
  </outline>
</glyph>
<glyph name="questiondown" format="1">
  <advance width="516"/>
  <unicode hex="00BF"/>
  <outline>
    <contour>
      <point x="222" y="325" type="line"/>
      <point x="222" y="301"/>
      <point x="217" y="240"/>
      <point x="202" y="229" type="curve"/>
      <point x="145" y="195"/>
      <point x="95" y="152"/>
      <point x="80" y="102" type="curve" smooth="yes"/>
      <point x="54" y="26"/>
      <point x="74" y="-31"/>
      <point x="129" y="-77" type="curve" smooth="yes"/>
      <point x="181" y="-157"/>
      <point x="279" y="-167"/>
      <point x="363" y="-116" type="curve" smooth="yes"/>
      <point x="435" y="-116"/>
      <point x="476" y="-88"/>
      <point x="502" y="-41" type="curve"/>
      <point x="378" y="-1" type="line"/>
      <point x="362" y="-47"/>
      <point x="332" y="-77"/>
      <point x="272" y="-77" type="curve" smooth="yes"/>
      <point x="211" y="-77"/>
      <point x="178" y="-49"/>
      <point x="178" y="9" type="curve" smooth="yes"/>
      <point x="178" y="47"/>
      <point x="197" y="75"/>
      <point x="220" y="98" type="curve" smooth="yes"/>
      <point x="259" y="140"/>
      <point x="309" y="170"/>
      <point x="350" y="196" type="curve"/>
      <point x="355" y="205"/>
      <point x="358" y="306"/>
      <point x="358" y="325" type="curve"/>
    </contour>
    <contour>
      <point x="284" y="536"/>
      <point x="212" y="524"/>
      <point x="212" y="491" type="curve" smooth="yes"/>
      <point x="212" y="457"/>
      <point x="225" y="397"/>
      <point x="260" y="397" type="curve" smooth="yes"/>
      <point x="294" y="397"/>
      <point x="365" y="409"/>
      <point x="365" y="442" type="curve" smooth="yes"/>
      <point x="365" y="475"/>
      <point x="353" y="536"/>
      <point x="318" y="536" type="curve" smooth="yes"/>
    </contour>
  </outline>
</glyph>
<glyph name="AE" format="1">
  <advance width="905"/>
  <unicode hex="00C6"/>
  <outline>
    <contour>
      <point x="322" y="690" type="line"/>
      <point x="6" y="0" type="line"/>
      <point x="157" y="0" type="line"/>
      <point x="232" y="171" type="line"/>
      <point x="438" y="171" type="line"/>
      <point x="441" y="0" type="line"/>
      <point x="865" y="0" type="line"/>
      <point x="865" y="120" type="line"/>
      <point x="579" y="120" type="line"/>
      <point x="576" y="295" type="line"/>
      <point x="809" y="295" type="line"/>
      <point x="809" y="413" type="line"/>
      <point x="574" y="413" type="line"/>
      <point x="570" y="572" type="line"/>
      <point x="853" y="572" type="line"/>
      <point x="853" y="690" type="line"/>
    </contour>
    <contour>
      <point x="436" y="291" type="line"/>
      <point x="284" y="291" type="line"/>
      <point x="400" y="554" type="line"/>
      <point x="432" y="554" type="line"/>
    </contour>
  </outline>
</glyph>
<glyph name="multiply" format="1">
  <advance width="630"/>
  <unicode hex="00D7"/>
  <outline>
    <contour>
      <point x="314" y="380" type="line"/>
      <point x="126" y="568" type="line"/>
      <point x="50" y="494" type="line"/>
      <point x="239" y="304" type="line"/>
      <point x="50" y="115" type="line"/>
      <point x="126" y="40" type="line"/>
      <point x="314" y="229" type="line"/>
      <point x="502" y="40" type="line"/>
      <point x="578" y="115" type="line"/>
      <point x="389" y="304" type="line"/>
      <point x="578" y="494" type="line"/>
      <point x="502" y="568" type="line"/>
    </contour>
  </outline>
</glyph>
<glyph name="Oslash" format="1">
  <advance width="675"/>
  <unicode hex="00D8"/>
  <outline>
    <contour>
      <point x="0" y="10" type="line"/>
      <point x="0" y="0" type="line"/>
      <point x="675" y="0" type="line"/>
      <point x="675" y="10" type="line"/>
    </contour>
  </outline>
</glyph>
<glyph name="Thorn" format="1">
  <advance width="606"/>
  <unicode hex="00DE"/>
  <outline>
    <contour>
      <point x="69" y="690" type="line"/>
      <point x="69" y="0" type="line"/>
      <point x="209" y="0" type="line"/>
      <point x="209" y="123" type="line"/>
      <point x="320" y="123" type="line" smooth="yes"/>
      <point x="481" y="123"/>
      <point x="571" y="198"/>
      <point x="571" y="355" type="curve" smooth="yes"/>
      <point x="571" y="507"/>
      <point x="476" y="578"/>
      <point x="322" y="578" type="curve"/>
      <point x="209" y="578" type="line"/>
      <point x="209" y="690" type="line"/>
    </contour>
    <contour>
      <point x="378" y="462"/>
      <point x="429" y="434"/>
      <point x="429" y="354" type="curve" smooth="yes"/>
      <point x="429" y="262"/>
      <point x="384" y="239"/>
      <point x="286" y="239" type="curve"/>
      <point x="209" y="239" type="line"/>
      <point x="209" y="462" type="line"/>
      <point x="294" y="462" type="line" smooth="yes"/>
    </contour>
  </outline>
</glyph>
<glyph name="germandbls" format="1">
  <advance width="609"/>
  <unicode hex="00DF"/>
  <outline>
    <contour>
      <point x="0" y="10" type="line"/>
      <point x="0" y="0" type="line"/>
      <point x="609" y="0" type="line"/>
      <point x="609" y="10" type="line"/>
    </contour>
  </outline>
</glyph>
<glyph name="ae" format="1">
  <advance width="861"/>
  <unicode hex="00E6"/>
  <outline>
    <contour>
      <point x="816" y="63" type="line"/>
      <point x="774" y="14"/>
      <point x="707" y="-13"/>
      <point x="615" y="-13" type="curve" smooth="yes"/>
      <point x="522" y="-13"/>
      <point x="454" y="15"/>
      <point x="412" y="67" type="curve"/>
      <point x="358" y="16"/>
      <point x="293" y="-13"/>
      <point x="214" y="-13" type="curve" smooth="yes"/>
      <point x="104" y="-13"/>
      <point x="33" y="45"/>
      <point x="33" y="151" type="curve" smooth="yes"/>
      <point x="33" y="260"/>
      <point x="117" y="311"/>
      <point x="259" y="318" type="curve" smooth="yes"/>
      <point x="359" y="324" type="line"/>
      <point x="359" y="349" type="line"/>
      <point x="359" y="404"/>
      <point x="326" y="427"/>
      <point x="270" y="427" type="curve" smooth="yes"/>
      <point x="214" y="427"/>
      <point x="179" y="408"/>
      <point x="165" y="370" type="curve"/>
      <point x="51" y="411" type="line"/>
      <point x="52" y="414"/>
      <point x="53" y="417"/>
      <point x="54" y="420" type="curve" smooth="yes"/>
      <point x="78" y="495"/>
      <point x="167" y="531"/>
      <point x="270" y="531" type="curve" smooth="yes"/>
      <point x="347" y="531"/>
      <point x="404" y="512"/>
      <point x="438" y="475" type="curve"/>
      <point x="477" y="511"/>
      <point x="532" y="531"/>
      <point x="604" y="531" type="curve" smooth="yes"/>
      <point x="750" y="531"/>
      <point x="825" y="438"/>
      <point x="825" y="291" type="curve" smooth="yes"/>
      <point x="825" y="223" type="line"/>
      <point x="493" y="221" type="line"/>
      <point x="497" y="138"/>
      <point x="533" y="97"/>
      <point x="620" y="97" type="curve" smooth="yes"/>
      <point x="679" y="97"/>
      <point x="710" y="110"/>
      <point x="745" y="140" type="curve"/>
    </contour>
    <contour>
      <point x="367" y="137" type="curve"/>
      <point x="364" y="148"/>
      <point x="359" y="221"/>
      <point x="359" y="234" type="curve"/>
      <point x="286" y="230" type="line"/>
      <point x="222" y="226"/>
      <point x="169" y="208"/>
      <point x="169" y="149" type="curve" smooth="yes"/>
      <point x="169" y="107"/>
      <point x="196" y="87"/>
      <point x="242" y="87" type="curve" smooth="yes"/>
      <point x="290" y="87"/>
      <point x="338" y="112"/>
    </contour>
    <contour>
      <point x="694" y="312" type="line"/>
      <point x="694" y="313"/>
      <point x="694" y="320"/>
      <point x="694" y="321" type="curve" smooth="yes"/>
      <point x="693" y="389"/>
      <point x="662" y="427"/>
      <point x="599" y="427" type="curve" smooth="yes"/>
      <point x="527" y="427"/>
      <point x="504" y="379"/>
      <point x="496" y="313" type="curve"/>
    </contour>
  </outline>
</glyph>
<glyph name="eth" format="1">
  <advance width="586"/>
  <unicode hex="00F0"/>
  <outline>
    <contour>
      <point x="0" y="10" type="line"/>
      <point x="0" y="0" type="line"/>
      <point x="586" y="0" type="line"/>
      <point x="586" y="10" type="line"/>
    </contour>
  </outline>
</glyph>
<glyph name="divide" format="1">
  <advance width="646"/>
  <unicode hex="00F7"/>
  <outline>
    <contour>
      <point x="51" y="357" type="line"/>
      <point x="51" y="252" type="line"/>
      <point x="592" y="252" type="line"/>
      <point x="592" y="357" type="line"/>
    </contour>
    <contour>
      <point x="258" y="152" type="line"/>
      <point x="258" y="33" type="line"/>
      <point x="387" y="33" type="line"/>
      <point x="387" y="152" type="line"/>
    </contour>
    <contour>
      <point x="258" y="576" type="line"/>
      <point x="258" y="457" type="line"/>
      <point x="387" y="457" type="line"/>
      <point x="387" y="576" type="line"/>
    </contour>
  </outline>
</glyph>
<glyph name="oslash" format="1">
  <advance width="574"/>
  <unicode hex="00F8"/>
  <outline>
    <contour>
      <point x="0" y="10" type="line"/>
      <point x="0" y="0" type="line"/>
      <point x="574" y="0" type="line"/>
      <point x="574" y="10" type="line"/>
    </contour>
  </outline>
</glyph>
<glyph name="thorn" format="1">
  <advance width="583"/>
  <unicode hex="00FE"/>
  <outline>
    <contour>
      <point x="0" y="10" type="line"/>
      <point x="0" y="0" type="line"/>
      <point x="583" y="0" type="line"/>
      <point x="583" y="10" type="line"/>
    </contour>
  </outline>
</glyph>
<glyph name="Dcroat" format="1">
  <advance width="677"/>
  <unicode hex="0110"/>
  <outline>
    <contour>
      <point x="0" y="10" type="line"/>
      <point x="0" y="0" type="line"/>
      <point x="677" y="0" type="line"/>
      <point x="677" y="10" type="line"/>
    </contour>
  </outline>
</glyph>
<glyph name="dcroat" format="1">
  <advance width="588"/>
  <unicode hex="0111"/>
  <outline>
    <contour>
      <point x="0" y="10" type="line"/>
      <point x="0" y="0" type="line"/>
      <point x="588" y="0" type="line"/>
      <point x="588" y="10" type="line"/>
    </contour>
  </outline>
</glyph>
<glyph name="eogonek" format="1">
  <advance width="546"/>
  <unicode hex="0119"/>
  <outline>
    <contour>
      <point x="0" y="10" type="line"/>
      <point x="0" y="0" type="line"/>
      <point x="546" y="0" type="line"/>
      <point x="546" y="10" type="line"/>
    </contour>
  </outline>
</glyph>
<glyph name="gcommaaccent" format="1">
  <advance width="582"/>
  <unicode hex="0123"/>
  <outline>
    <contour>
      <point x="0" y="10" type="line"/>
      <point x="0" y="0" type="line"/>
      <point x="582" y="0" type="line"/>
      <point x="582" y="10" type="line"/>
    </contour>
  </outline>
</glyph>
<glyph name="Hbar" format="1">
  <advance width="694"/>
  <unicode hex="0126"/>
  <outline>
    <contour>
      <point x="485" y="690" type="line"/>
      <point x="485" y="584" type="line"/>
      <point x="210" y="584" type="line"/>
      <point x="210" y="690" type="line"/>
      <point x="70" y="690" type="line"/>
      <point x="70" y="584" type="line"/>
      <point x="6" y="584" type="line"/>
      <point x="6" y="491" type="line"/>
      <point x="70" y="491" type="line"/>
      <point x="70" y="0" type="line"/>
      <point x="210" y="0" type="line"/>
      <point x="210" y="290" type="line"/>
      <point x="485" y="290" type="line"/>
      <point x="485" y="0" type="line"/>
      <point x="625" y="0" type="line"/>
      <point x="625" y="491" type="line"/>
      <point x="691" y="491" type="line"/>
      <point x="691" y="584" type="line"/>
      <point x="625" y="584" type="line"/>
      <point x="625" y="690" type="line"/>
    </contour>
    <contour>
      <point x="485" y="410" type="line"/>
      <point x="210" y="410" type="line"/>
      <point x="210" y="491" type="line"/>
      <point x="485" y="491" type="line"/>
    </contour>
  </outline>
</glyph>
<glyph name="Iogonek" format="1">
  <advance width="372"/>
  <unicode hex="012E"/>
  <outline>
    <contour>
      <point x="0" y="10" type="line"/>
      <point x="0" y="0" type="line"/>
      <point x="372" y="0" type="line"/>
      <point x="372" y="10" type="line"/>
    </contour>
  </outline>
</glyph>
<glyph name="iogonek" format="1">
  <advance width="268"/>
  <unicode hex="012F"/>
  <outline>
    <contour>
      <point x="0" y="10" type="line"/>
      <point x="0" y="0" type="line"/>
      <point x="268" y="0" type="line"/>
      <point x="268" y="10" type="line"/>
    </contour>
  </outline>
</glyph>
<glyph name="dotlessi" format="1">
  <advance width="270"/>
  <unicode hex="0131"/>
  <outline>
    <contour>
      <point x="69" y="518" type="line"/>
      <point x="69" y="0" type="line"/>
      <point x="201" y="0" type="line"/>
      <point x="201" y="518" type="line"/>
    </contour>
  </outline>
</glyph>
<glyph name="jcircumflex" format="1">
  <advance width="277"/>
  <unicode hex="0135"/>
  <outline>
    <contour>
      <point x="0" y="10" type="line"/>
      <point x="0" y="0" type="line"/>
      <point x="277" y="0" type="line"/>
      <point x="277" y="10" type="line"/>
    </contour>
  </outline>
</glyph>
<glyph name="kgreenlandic" format="1">
  <advance width="558"/>
  <unicode hex="0138"/>
  <outline>
    <contour>
      <point x="0" y="10" type="line"/>
      <point x="0" y="0" type="line"/>
      <point x="558" y="0" type="line"/>
      <point x="558" y="10" type="line"/>
    </contour>
  </outline>
</glyph>
<glyph name="Lcaron" format="1">
  <advance width="520"/>
  <unicode hex="013D"/>
  <outline>
    <contour>
      <point x="0" y="10" type="line"/>
      <point x="0" y="0" type="line"/>
      <point x="520" y="0" type="line"/>
      <point x="520" y="10" type="line"/>
    </contour>
  </outline>
</glyph>
<glyph name="lcaron" format="1">
  <advance width="304"/>
  <unicode hex="013E"/>
  <outline>
    <contour>
      <point x="0" y="10" type="line"/>
      <point x="0" y="0" type="line"/>
      <point x="304" y="0" type="line"/>
      <point x="304" y="10" type="line"/>
    </contour>
  </outline>
</glyph>
<glyph name="Lslash" format="1">
  <advance width="506"/>
  <unicode hex="0141"/>
  <outline>
    <contour>
      <point x="67" y="690" type="line"/>
      <point x="67" y="381" type="line"/>
      <point x="5" y="343" type="line"/>
      <point x="5" y="226" type="line"/>
      <point x="67" y="264" type="line"/>
      <point x="67" y="0" type="line"/>
      <point x="504" y="0" type="line"/>
      <point x="504" y="119" type="line"/>
      <point x="207" y="119" type="line"/>
      <point x="207" y="339" type="line"/>
      <point x="322" y="405" type="line"/>
      <point x="322" y="521" type="line"/>
      <point x="207" y="456" type="line"/>
      <point x="207" y="690" type="line"/>
    </contour>
  </outline>
</glyph>
<glyph name="lslash" format="1">
  <advance width="277"/>
  <unicode hex="0142"/>
  <outline>
    <contour>
      <point x="71" y="741" type="line"/>
      <point x="71" y="372" type="line"/>
      <point x="6" y="323" type="line"/>
      <point x="6" y="217" type="line"/>
      <point x="71" y="266" type="line"/>
      <point x="71" y="0" type="line"/>
      <point x="204" y="0" type="line"/>
      <point x="204" y="355" type="line"/>
      <point x="271" y="405" type="line"/>
      <point x="271" y="510" type="line"/>
      <point x="204" y="461" type="line"/>
      <point x="204" y="741" type="line"/>
    </contour>
  </outline>
</glyph>
<glyph name="Eng" format="1">
  <advance width="694"/>
  <unicode hex="014A"/>
  <outline>
    <contour>
      <point x="0" y="10" type="line"/>
      <point x="0" y="0" type="line"/>
      <point x="694" y="0" type="line"/>
      <point x="694" y="10" type="line"/>
    </contour>
  </outline>
</glyph>
<glyph name="eng" format="1">
  <advance width="582"/>
  <unicode hex="014B"/>
  <outline>
    <contour>
      <point x="0" y="10" type="line"/>
      <point x="0" y="0" type="line"/>
      <point x="582" y="0" type="line"/>
      <point x="582" y="10" type="line"/>
    </contour>
  </outline>
</glyph>
<glyph name="OE" format="1">
  <advance width="949"/>
  <unicode hex="0152"/>
  <outline>
    <contour>
      <point x="344" y="-12" type="curve" smooth="yes"/>
      <point x="394" y="-12"/>
      <point x="432" y="-8"/>
      <point x="474" y="0" type="curve"/>
      <point x="896" y="0" type="line"/>
      <point x="896" y="119" type="line"/>
      <point x="592" y="119" type="line"/>
      <point x="592" y="296" type="line"/>
      <point x="846" y="296" type="line"/>
      <point x="846" y="413" type="line"/>
      <point x="592" y="413" type="line"/>
      <point x="592" y="573" type="line"/>
      <point x="895" y="573" type="line"/>
      <point x="895" y="690" type="line"/>
      <point x="473" y="690" type="line"/>
      <point x="429" y="697"/>
      <point x="387" y="702"/>
      <point x="344" y="702" type="curve" smooth="yes"/>
      <point x="150" y="702"/>
      <point x="49" y="575"/>
      <point x="47" y="382" type="curve" smooth="yes"/>
      <point x="47" y="379"/>
      <point x="47" y="317"/>
      <point x="47" y="315" type="curve" smooth="yes"/>
      <point x="47" y="117"/>
      <point x="149" y="-12"/>
    </contour>
    <contour>
      <point x="351" y="105" type="curve" smooth="yes"/>
      <point x="229" y="105"/>
      <point x="189" y="185"/>
      <point x="189" y="315" type="curve" smooth="yes"/>
      <point x="189" y="317"/>
      <point x="189" y="378"/>
      <point x="189" y="380" type="curve" smooth="yes"/>
      <point x="190" y="507"/>
      <point x="231" y="585"/>
      <point x="350" y="585" type="curve" smooth="yes"/>
      <point x="389" y="585"/>
      <point x="420" y="578"/>
      <point x="451" y="564" type="curve"/>
      <point x="451" y="125" type="line"/>
      <point x="420" y="111"/>
      <point x="395" y="105"/>
    </contour>
  </outline>
</glyph>
<glyph name="oe" format="1">
  <advance width="910"/>
  <unicode hex="0153"/>
  <outline>
    <contour>
      <point x="654" y="531" type="curve" smooth="yes"/>
      <point x="800" y="531"/>
      <point x="876" y="438"/>
      <point x="876" y="291" type="curve" smooth="yes"/>
      <point x="876" y="223" type="line"/>
      <point x="545" y="221" type="line"/>
      <point x="549" y="141"/>
      <point x="586" y="97"/>
      <point x="669" y="97" type="curve" smooth="yes"/>
      <point x="729" y="97"/>
      <point x="761" y="110"/>
      <point x="796" y="140" type="curve"/>
      <point x="868" y="64" type="line"/>
      <point x="824" y="13"/>
      <point x="759" y="-13"/>
      <point x="664" y="-13" type="curve" smooth="yes"/>
      <point x="577" y="-13"/>
      <point x="513" y="16"/>
      <point x="472" y="66" type="curve"/>
      <point x="429" y="16"/>
      <point x="367" y="-13"/>
      <point x="287" y="-13" type="curve" smooth="yes"/>
      <point x="122" y="-13"/>
      <point x="40" y="91"/>
      <point x="40" y="257" type="curve" smooth="yes"/>
      <point x="40" y="258"/>
      <point x="40" y="264"/>
      <point x="40" y="266" type="curve" smooth="yes"/>
      <point x="42" y="428"/>
      <point x="123" y="531"/>
      <point x="284" y="531" type="curve" smooth="yes"/>
      <point x="367" y="531"/>
      <point x="429" y="503"/>
      <point x="472" y="453" type="curve"/>
      <point x="511" y="499"/>
      <point x="568" y="531"/>
    </contour>
    <contour>
      <point x="287" y="97" type="curve" smooth="yes"/>
      <point x="373" y="97"/>
      <point x="399" y="163"/>
      <point x="399" y="257" type="curve" smooth="yes"/>
      <point x="399" y="262" type="line" smooth="yes"/>
      <point x="399" y="356"/>
      <point x="373" y="421"/>
      <point x="287" y="421" type="curve" smooth="yes"/>
      <point x="201" y="421"/>
      <point x="175" y="354"/>
      <point x="175" y="263" type="curve" smooth="yes"/>
      <point x="175" y="262"/>
      <point x="175" y="257"/>
      <point x="175" y="257" type="curve" smooth="yes"/>
      <point x="175" y="164"/>
      <point x="200" y="97"/>
    </contour>
    <contour>
      <point x="745" y="312" type="line"/>
      <point x="745" y="313"/>
      <point x="745" y="319"/>
      <point x="745" y="319" type="curve" smooth="yes"/>
      <point x="744" y="388"/>
      <point x="713" y="427"/>
      <point x="649" y="427" type="curve" smooth="yes"/>
      <point x="579" y="427"/>
      <point x="556" y="380"/>
      <point x="547" y="313" type="curve"/>
    </contour>
  </outline>
</glyph>
<glyph name="scedilla" format="1">
  <advance width="506"/>
  <unicode hex="015F"/>
  <outline>
    <contour>
      <point x="0" y="10" type="line"/>
      <point x="0" y="0" type="line"/>
      <point x="506" y="0" type="line"/>
      <point x="506" y="10" type="line"/>
    </contour>
  </outline>
</glyph>
<glyph name="Tbar" format="1">
  <advance width="580"/>
  <unicode hex="0166"/>
  <outline>
    <contour>
      <point x="16" y="690" type="line"/>
      <point x="16" y="570" type="line"/>
      <point x="221" y="570" type="line"/>
      <point x="221" y="434" type="line"/>
      <point x="128" y="434" type="line"/>
      <point x="128" y="345" type="line"/>
      <point x="221" y="345" type="line"/>
      <point x="221" y="0" type="line"/>
      <point x="360" y="0" type="line"/>
      <point x="360" y="345" type="line"/>
      <point x="456" y="345" type="line"/>
      <point x="456" y="434" type="line"/>
      <point x="360" y="434" type="line"/>
      <point x="360" y="570" type="line"/>
      <point x="566" y="570" type="line"/>
      <point x="566" y="690" type="line"/>
    </contour>
  </outline>
</glyph>
<glyph name="tbar" format="1">
  <advance width="356"/>
  <unicode hex="0167"/>
  <outline>
    <contour>
      <point x="81" y="656" type="line"/>
      <point x="81" y="518" type="line"/>
      <point x="11" y="518" type="line"/>
      <point x="11" y="418" type="line"/>
      <point x="81" y="418" type="line"/>
      <point x="81" y="352" type="line"/>
      <point x="1" y="352" type="line"/>
      <point x="1" y="262" type="line"/>
      <point x="81" y="262" type="line"/>
      <point x="81" y="157" type="line" smooth="yes"/>
      <point x="81" y="41"/>
      <point x="129" y="-13"/>
      <point x="242" y="-13" type="curve" smooth="yes"/>
      <point x="278" y="-13"/>
      <point x="310" y="-8"/>
      <point x="341" y="2" type="curve"/>
      <point x="323" y="105" type="line"/>
      <point x="303" y="98"/>
      <point x="287" y="94"/>
      <point x="266" y="94" type="curve" smooth="yes"/>
      <point x="226" y="94"/>
      <point x="213" y="120"/>
      <point x="213" y="166" type="curve"/>
      <point x="213" y="262" type="line"/>
      <point x="328" y="262" type="line"/>
      <point x="328" y="352" type="line"/>
      <point x="213" y="352" type="line"/>
      <point x="213" y="418" type="line"/>
      <point x="320" y="418" type="line"/>
      <point x="320" y="518" type="line"/>
      <point x="213" y="518" type="line"/>
      <point x="213" y="656" type="line"/>
    </contour>
  </outline>
</glyph>
<glyph name="Uogonek" format="1">
  <advance width="696"/>
  <unicode hex="0172"/>
  <outline>
    <contour>
      <point x="0" y="10" type="line"/>
      <point x="0" y="0" type="line"/>
      <point x="696" y="0" type="line"/>
      <point x="696" y="10" type="line"/>
    </contour>
  </outline>
</glyph>
<glyph name="longs" format="1">
  <advance width="283"/>
  <unicode hex="017F"/>
  <outline>
    <contour>
      <point x="0" y="10" type="line"/>
      <point x="0" y="0" type="line"/>
      <point x="283" y="0" type="line"/>
      <point x="283" y="10" type="line"/>
    </contour>
  </outline>
</glyph>
<glyph name="florin" format="1">
  <advance width="448"/>
  <unicode hex="0192"/>
  <outline>
    <contour>
      <point x="230" y="754"/>
      <point x="161" y="692"/>
      <point x="147" y="572" type="curve"/>
      <point x="141" y="518" type="line"/>
      <point x="70" y="518" type="line"/>
      <point x="59" y="418" type="line"/>
      <point x="129" y="418" type="line"/>
      <point x="79" y="-16" type="line" smooth="yes"/>
      <point x="73" y="-62"/>
      <point x="58" y="-91"/>
      <point x="9" y="-91" type="curve" smooth="yes"/>
      <point x="-12" y="-91"/>
      <point x="-35" y="-87"/>
      <point x="-60" y="-78" type="curve"/>
      <point x="-89" y="-189" type="line"/>
      <point x="-61" y="-197"/>
      <point x="-33" y="-201"/>
      <point x="3" y="-201" type="curve" smooth="yes"/>
      <point x="134" y="-201"/>
      <point x="198" y="-133"/>
      <point x="212" y="-16" type="curve"/>
      <point x="262" y="418" type="line"/>
      <point x="362" y="418" type="line"/>
      <point x="373" y="518" type="line"/>
      <point x="273" y="518" type="line"/>
      <point x="279" y="572" type="line" smooth="yes"/>
      <point x="285" y="619"/>
      <point x="304" y="644"/>
      <point x="355" y="644" type="curve" smooth="yes"/>
      <point x="377" y="644"/>
      <point x="399" y="639"/>
      <point x="424" y="632" type="curve"/>
      <point x="455" y="741" type="line"/>
      <point x="428" y="748"/>
      <point x="392" y="754"/>
      <point x="359" y="754" type="curve" smooth="yes"/>
    </contour>
  </outline>
</glyph>
<glyph name="Aringacute" format="1">
  <advance width="647"/>
  <unicode hex="01FA"/>
  <outline>
    <contour>
      <point x="0" y="10" type="line"/>
      <point x="0" y="0" type="line"/>
      <point x="647" y="0" type="line"/>
      <point x="647" y="10" type="line"/>
    </contour>
  </outline>
</glyph>
<glyph name="aringacute" format="1">
  <advance width="548"/>
  <unicode hex="01FB"/>
  <outline>
    <contour>
      <point x="0" y="10" type="line"/>
      <point x="0" y="0" type="line"/>
      <point x="548" y="0" type="line"/>
      <point x="548" y="10" type="line"/>
    </contour>
  </outline>
</glyph>
<glyph name="uni021A" format="1">
  <advance width="587"/>
  <unicode hex="021A"/>
  <outline>
    <contour>
      <point x="17" y="676" type="line"/>
      <point x="17" y="550" type="line"/>
      <point x="225" y="550" type="line"/>
      <point x="225" y="0" type="line"/>
      <point x="268" y="0" type="line"/>
      <point x="235" y="-64" type="line"/>
      <point x="294" y="-67"/>
      <point x="323" y="-78"/>
      <point x="323" y="-99" type="curve" smooth="yes"/>
      <point x="323" y="-119"/>
      <point x="302" y="-122"/>
      <point x="276" y="-122" type="curve" smooth="yes"/>
      <point x="248" y="-122"/>
      <point x="217" y="-115"/>
      <point x="182" y="-100" type="curve"/>
      <point x="148" y="-171" type="line"/>
      <point x="178" y="-186"/>
      <point x="221" y="-193"/>
      <point x="277" y="-193" type="curve" smooth="yes"/>
      <point x="370" y="-193"/>
      <point x="417" y="-162"/>
      <point x="417" y="-100" type="curve" smooth="yes"/>
      <point x="417" y="-45"/>
      <point x="379" y="-18"/>
      <point x="326" y="-11" type="curve"/>
      <point x="331" y="0" type="line"/>
      <point x="363" y="0" type="line"/>
      <point x="363" y="550" type="line"/>
      <point x="571" y="550" type="line"/>
      <point x="571" y="676" type="line"/>
    </contour>
  </outline>
</glyph>
<glyph name="dotlessj" format="1">
  <advance width="274"/>
  <unicode hex="0237"/>
  <outline>
    <contour>
      <point x="78" y="512" type="line"/>
      <point x="78" y="18" type="line" smooth="yes"/>
      <point x="78" y="-18"/>
      <point x="75" y="-44"/>
      <point x="69" y="-60" type="curve" smooth="yes"/>
      <point x="63" y="-76"/>
      <point x="47" y="-83"/>
      <point x="22" y="-83" type="curve" smooth="yes"/>
      <point x="-3" y="-83"/>
      <point x="-28" y="-78"/>
      <point x="-52" y="-69" type="curve"/>
      <point x="-79" y="-178" type="line"/>
      <point x="-58" y="-184"/>
      <point x="2" y="-193"/>
      <point x="29" y="-193" type="curve" smooth="yes"/>
      <point x="153" y="-193"/>
      <point x="204" y="-145"/>
      <point x="204" y="-22" type="curve"/>
      <point x="204" y="512" type="line"/>
    </contour>
  </outline>
</glyph>
<glyph name="circumflex" format="1">
  <advance width="504"/>
  <unicode hex="02C6"/>
  <outline>
    <contour>
      <point x="199" y="756" type="line"/>
      <point x="75" y="598" type="line"/>
      <point x="180" y="598" type="line"/>
      <point x="251" y="675" type="line"/>
      <point x="321" y="598" type="line"/>
      <point x="428" y="598" type="line"/>
      <point x="303" y="756" type="line"/>
    </contour>
  </outline>
</glyph>
<glyph name="caron" format="1">
  <advance width="494"/>
  <unicode hex="02C7"/>
  <outline>
    <contour>
      <point x="313" y="757" type="line"/>
      <point x="246" y="681" type="line"/>
      <point x="181" y="757" type="line"/>
      <point x="67" y="757" type="line"/>
      <point x="191" y="598" type="line"/>
      <point x="302" y="598" type="line"/>
      <point x="425" y="757" type="line"/>
    </contour>
  </outline>
</glyph>
<glyph name="breve" format="1">
  <advance width="483"/>
  <unicode hex="02D8"/>
  <outline>
    <contour>
      <point x="316" y="727" type="line"/>
      <point x="311" y="693"/>
      <point x="283" y="672"/>
      <point x="242" y="672" type="curve" smooth="yes"/>
      <point x="199" y="672"/>
      <point x="173" y="692"/>
      <point x="167" y="727" type="curve"/>
      <point x="70" y="727" type="line"/>
      <point x="69" y="724"/>
      <point x="69" y="722"/>
      <point x="69" y="719" type="curve" smooth="yes"/>
      <point x="71" y="635"/>
      <point x="141" y="574"/>
      <point x="241" y="574" type="curve" smooth="yes"/>
      <point x="335" y="574"/>
      <point x="413" y="626"/>
      <point x="413" y="723" type="curve" smooth="yes"/>
      <point x="413" y="724"/>
      <point x="413" y="726"/>
      <point x="413" y="727" type="curve"/>
    </contour>
  </outline>
</glyph>
<glyph name="dotaccent" format="1">
  <advance width="428"/>
  <unicode hex="02D9"/>
  <outline>
    <contour>
      <point x="211" y="716"/>
      <point x="139" y="707"/>
      <point x="139" y="678" type="curve" smooth="yes"/>
      <point x="139" y="650"/>
      <point x="151" y="592"/>
      <point x="181" y="592" type="curve" smooth="yes"/>
      <point x="210" y="592"/>
      <point x="283" y="602"/>
      <point x="283" y="631" type="curve" smooth="yes"/>
      <point x="283" y="660"/>
      <point x="270" y="716"/>
      <point x="240" y="716" type="curve" smooth="yes"/>
    </contour>
  </outline>
</glyph>
<glyph name="ring" format="1">
  <advance width="439"/>
  <unicode hex="02DA"/>
  <outline>
    <contour>
      <point x="153" y="761"/>
      <point x="110" y="722"/>
      <point x="110" y="657" type="curve" smooth="yes"/>
      <point x="110" y="592"/>
      <point x="153" y="554"/>
      <point x="219" y="554" type="curve" smooth="yes"/>
      <point x="285" y="554"/>
      <point x="328" y="592"/>
      <point x="328" y="657" type="curve" smooth="yes"/>
      <point x="328" y="722"/>
      <point x="286" y="761"/>
      <point x="219" y="761" type="curve" smooth="yes"/>
    </contour>
    <contour>
      <point x="247" y="703"/>
      <point x="263" y="686"/>
      <point x="263" y="657" type="curve" smooth="yes"/>
      <point x="263" y="629"/>
      <point x="247" y="612"/>
      <point x="219" y="612" type="curve" smooth="yes"/>
      <point x="192" y="612"/>
      <point x="175" y="629"/>
      <point x="175" y="657" type="curve" smooth="yes"/>
      <point x="175" y="686"/>
      <point x="191" y="703"/>
      <point x="219" y="703" type="curve" smooth="yes"/>
    </contour>
  </outline>
</glyph>
<glyph name="ogonek" format="1">
  <advance width="426"/>
  <unicode hex="02DB"/>
  <outline>
    <contour>
      <point x="202" y="16"/>
      <point x="126" y="-21"/>
      <point x="126" y="-104" type="curve" smooth="yes"/>
      <point x="126" y="-167"/>
      <point x="173" y="-199"/>
      <point x="238" y="-199" type="curve" smooth="yes"/>
      <point x="275" y="-199"/>
      <point x="309" y="-189"/>
      <point x="345" y="-172" type="curve"/>
      <point x="311" y="-95" type="line"/>
      <point x="298" y="-101"/>
      <point x="280" y="-108"/>
      <point x="263" y="-108" type="curve" smooth="yes"/>
      <point x="240" y="-108"/>
      <point x="229" y="-98"/>
      <point x="229" y="-76" type="curve" smooth="yes"/>
      <point x="229" y="-46"/>
      <point x="256" y="-25"/>
      <point x="323" y="0" type="curve"/>
      <point x="271" y="33" type="line"/>
    </contour>
  </outline>
</glyph>
<glyph name="tilde" format="1">
  <advance width="498"/>
  <unicode hex="02DC"/>
  <outline>
    <contour>
      <point x="359" y="719"/>
      <point x="348" y="689"/>
      <point x="322" y="689" type="curve" smooth="yes"/>
      <point x="302" y="689"/>
      <point x="282" y="703"/>
      <point x="256" y="718" type="curve" smooth="yes"/>
      <point x="230" y="734"/>
      <point x="205" y="748"/>
      <point x="174" y="748" type="curve" smooth="yes"/>
      <point x="98" y="748"/>
      <point x="58" y="687"/>
      <point x="56" y="609" type="curve"/>
      <point x="140" y="601" type="line"/>
      <point x="140" y="636"/>
      <point x="153" y="659"/>
      <point x="176" y="659" type="curve" smooth="yes"/>
      <point x="202" y="659"/>
      <point x="222" y="637"/>
      <point x="251" y="621" type="curve" smooth="yes"/>
      <point x="273" y="608"/>
      <point x="297" y="600"/>
      <point x="323" y="600" type="curve" smooth="yes"/>
      <point x="402" y="600"/>
      <point x="438" y="659"/>
      <point x="442" y="739" type="curve"/>
      <point x="359" y="748" type="line"/>
    </contour>
  </outline>
</glyph>
<glyph name="hungarumlaut" format="1">
  <advance width="476"/>
  <unicode hex="02DD"/>
  <outline>
    <contour>
      <point x="362" y="756" type="line"/>
      <point x="260" y="598" type="line"/>
      <point x="366" y="598" type="line"/>
      <point x="508" y="756" type="line"/>
    </contour>
    <contour>
      <point x="164" y="756" type="line"/>
      <point x="70" y="598" type="line"/>
      <point x="176" y="598" type="line"/>
      <point x="310" y="756" type="line"/>
    </contour>
  </outline>
</glyph>
<glyph name="uni0307" format="1">
  <advance width="600"/>
  <unicode hex="0307"/>
  <outline>
    <contour>
      <point x="-50" y="716"/>
      <point x="-70" y="700"/>
      <point x="-70" y="652" type="curve" smooth="yes"/>
      <point x="-70" y="606"/>
      <point x="-50" y="588"/>
      <point x="-1" y="588" type="curve" smooth="yes"/>
      <point x="47" y="588"/>
      <point x="70" y="604"/>
      <point x="70" y="652" type="curve" smooth="yes"/>
      <point x="70" y="700"/>
      <point x="48" y="716"/>
      <point x="-1" y="716" type="curve" smooth="yes"/>
    </contour>
  </outline>
</glyph>
<glyph name="uni030F" format="1">
  <advance width="600"/>
  <unicode hex="030F"/>
  <outline>
    <contour>
      <point x="-504" y="741" type="line"/>
      <point x="-505" y="738" type="line"/>
      <point x="-366" y="611" type="line"/>
      <point x="-252" y="611" type="line"/>
      <point x="-251" y="614" type="line"/>
      <point x="-369" y="741" type="line"/>
    </contour>
    <contour>
      <point x="-313" y="741" type="line"/>
      <point x="-314" y="739" type="line"/>
      <point x="-197" y="611" type="line"/>
      <point x="-82" y="611" type="line"/>
      <point x="-179" y="741" type="line"/>
    </contour>
  </outline>
</glyph>
<glyph name="Sigma" format="1">
  <advance width="569"/>
  <unicode hex="03A3"/>
  <outline>
    <contour>
      <point x="35" y="690" type="line"/>
      <point x="35" y="600" type="line"/>
      <point x="254" y="349" type="line"/>
      <point x="35" y="91" type="line"/>
      <point x="35" y="0" type="line"/>
      <point x="534" y="0" type="line"/>
      <point x="534" y="111" type="line"/>
      <point x="216" y="111" type="line"/>
      <point x="393" y="322" type="line"/>
      <point x="393" y="376" type="line"/>
      <point x="221" y="579" type="line"/>
      <point x="518" y="579" type="line"/>
      <point x="518" y="690" type="line"/>
    </contour>
  </outline>
</glyph>
<glyph name="Omega" format="1">
  <advance width="671"/>
  <unicode hex="03A9"/>
  <outline>
    <contour>
      <point x="248" y="721"/>
      <point x="181" y="693"/>
      <point x="129" y="636" type="curve" smooth="yes"/>
      <point x="77" y="579"/>
      <point x="51" y="507"/>
      <point x="51" y="418" type="curve"/>
      <point x="51" y="373" type="line" smooth="yes"/>
      <point x="51" y="258"/>
      <point x="111" y="163"/>
      <point x="181" y="111" type="curve"/>
      <point x="62" y="111" type="line"/>
      <point x="62" y="0" type="line"/>
      <point x="308" y="0" type="line"/>
      <point x="308" y="113" type="line"/>
      <point x="276" y="124"/>
      <point x="251" y="150"/>
      <point x="234" y="193" type="curve" smooth="yes"/>
      <point x="217" y="235"/>
      <point x="208" y="295"/>
      <point x="208" y="373" type="curve"/>
      <point x="208" y="419" type="line" smooth="yes"/>
      <point x="208" y="521"/>
      <point x="239" y="610"/>
      <point x="331" y="610" type="curve" smooth="yes"/>
      <point x="424" y="610"/>
      <point x="456" y="522"/>
      <point x="456" y="419" type="curve"/>
      <point x="456" y="373" type="line" smooth="yes"/>
      <point x="456" y="296"/>
      <point x="447" y="236"/>
      <point x="430" y="193" type="curve" smooth="yes"/>
      <point x="413" y="150"/>
      <point x="389" y="124"/>
      <point x="359" y="113" type="curve"/>
      <point x="359" y="0" type="line"/>
      <point x="605" y="0" type="line"/>
      <point x="605" y="111" type="line"/>
      <point x="483" y="111" type="line"/>
      <point x="552" y="164"/>
      <point x="613" y="257"/>
      <point x="613" y="373" type="curve"/>
      <point x="613" y="418" type="line" smooth="yes"/>
      <point x="613" y="507"/>
      <point x="587" y="579"/>
      <point x="535" y="636" type="curve" smooth="yes"/>
      <point x="482" y="693"/>
      <point x="414" y="721"/>
      <point x="331" y="721" type="curve" smooth="yes"/>
    </contour>
  </outline>
</glyph>
<glyph name="mu" format="1">
  <advance width="617"/>
  <unicode hex="03BC"/>
  <outline>
    <contour>
      <point x="397" y="528" type="line"/>
      <point x="397" y="153" type="line"/>
      <point x="379" y="119"/>
      <point x="349" y="101"/>
      <point x="298" y="101" type="curve" smooth="yes"/>
      <point x="227" y="101"/>
      <point x="210" y="144"/>
      <point x="210" y="226" type="curve"/>
      <point x="210" y="528" type="line"/>
      <point x="68" y="528" type="line"/>
      <point x="68" y="-203" type="line"/>
      <point x="210" y="-203" type="line"/>
      <point x="210" y="11" type="line"/>
      <point x="232" y="-3"/>
      <point x="259" y="-10"/>
      <point x="294" y="-10" type="curve" smooth="yes"/>
      <point x="342" y="-10"/>
      <point x="379" y="8"/>
      <point x="404" y="33" type="curve"/>
      <point x="407" y="0" type="line"/>
      <point x="540" y="0" type="line"/>
      <point x="540" y="528" type="line"/>
    </contour>
  </outline>
</glyph>
<glyph name="pi" format="1">
  <advance width="674"/>
  <unicode hex="03C0"/>
  <outline>
    <contour>
      <point x="0" y="10" type="line"/>
      <point x="0" y="0" type="line"/>
      <point x="674" y="0" type="line"/>
      <point x="674" y="10" type="line"/>
    </contour>
  </outline>
</glyph>
<glyph name="endash" format="1">
  <advance width="581"/>
  <unicode hex="2013"/>
  <outline>
    <contour>
      <point x="0" y="10" type="line"/>
      <point x="0" y="0" type="line"/>
      <point x="581" y="0" type="line"/>
      <point x="581" y="10" type="line"/>
    </contour>
  </outline>
</glyph>
<glyph name="emdash" format="1">
  <advance width="931"/>
  <unicode hex="2014"/>
  <outline>
    <contour>
      <point x="0" y="10" type="line"/>
      <point x="0" y="0" type="line"/>
      <point x="931" y="0" type="line"/>
      <point x="931" y="10" type="line"/>
    </contour>
  </outline>
</glyph>
<glyph name="quoteleft" format="1">
  <advance width="250"/>
  <unicode hex="2018"/>
  <outline>
    <contour>
      <point x="0" y="10" type="line"/>
      <point x="0" y="0" type="line"/>
      <point x="250" y="0" type="line"/>
      <point x="250" y="10" type="line"/>
    </contour>
  </outline>
</glyph>
<glyph name="quoteright" format="1">
  <advance width="250"/>
  <unicode hex="2019"/>
  <outline>
    <contour>
      <point x="0" y="10" type="line"/>
      <point x="0" y="0" type="line"/>
      <point x="250" y="0" type="line"/>
      <point x="250" y="10" type="line"/>
    </contour>
  </outline>
</glyph>
<glyph name="quotesinglbase" format="1">
  <advance width="250"/>
  <unicode hex="201A"/>
  <outline>
    <contour>
      <point x="121" y="145"/>
      <point x="59" y="131"/>
      <point x="59" y="99" type="curve" smooth="yes"/>
      <point x="59" y="70"/>
      <point x="70" y="-1"/>
      <point x="96" y="-3" type="curve"/>
      <point x="95" y="-18"/>
      <point x="71" y="-103"/>
      <point x="47" y="-137" type="curve"/>
      <point x="135" y="-137" type="line"/>
      <point x="154" y="-109"/>
      <point x="203" y="-7"/>
      <point x="203" y="40" type="curve" smooth="yes"/>
      <point x="203" y="76"/>
      <point x="187" y="145"/>
      <point x="156" y="145" type="curve" smooth="yes"/>
    </contour>
  </outline>
</glyph>
<glyph name="quotedblleft" format="1">
  <advance width="451"/>
  <unicode hex="201C"/>
  <outline>
    <contour>
      <point x="0" y="10" type="line"/>
      <point x="0" y="0" type="line"/>
      <point x="451" y="0" type="line"/>
      <point x="451" y="10" type="line"/>
    </contour>
  </outline>
</glyph>
<glyph name="quotedblright" format="1">
  <advance width="453"/>
  <unicode hex="201D"/>
  <outline>
    <contour>
      <point x="0" y="10" type="line"/>
      <point x="0" y="0" type="line"/>
      <point x="453" y="0" type="line"/>
      <point x="453" y="10" type="line"/>
    </contour>
  </outline>
</glyph>
<glyph name="quotedblbase" format="1">
  <advance width="449"/>
  <unicode hex="201E"/>
  <outline>
    <contour>
      <point x="0" y="10" type="line"/>
      <point x="0" y="0" type="line"/>
      <point x="449" y="0" type="line"/>
      <point x="449" y="10" type="line"/>
    </contour>
  </outline>
</glyph>
<glyph name="dagger" format="1">
  <advance width="540"/>
  <unicode hex="2020"/>
  <outline>
    <contour>
      <point x="204" y="730" type="line"/>
      <point x="212" y="509" type="line"/>
      <point x="29" y="515" type="line"/>
      <point x="29" y="399" type="line"/>
      <point x="212" y="407" type="line"/>
      <point x="203" y="-116" type="line"/>
      <point x="336" y="-116" type="line"/>
      <point x="327" y="407" type="line"/>
      <point x="512" y="399" type="line"/>
      <point x="512" y="515" type="line"/>
      <point x="327" y="509" type="line"/>
      <point x="335" y="730" type="line"/>
    </contour>
  </outline>
</glyph>
<glyph name="daggerdbl" format="1">
  <advance width="546"/>
  <unicode hex="2021"/>
  <outline>
    <contour>
      <point x="331" y="17" type="line"/>
      <point x="339" y="-197" type="line"/>
      <point x="206" y="-197" type="line"/>
      <point x="214" y="17" type="line"/>
      <point x="37" y="11" type="line"/>
      <point x="37" y="125" type="line"/>
      <point x="214" y="118" type="line"/>
      <point x="209" y="270" type="line"/>
      <point x="214" y="422" type="line"/>
      <point x="37" y="415" type="line"/>
      <point x="37" y="530" type="line"/>
      <point x="214" y="523" type="line"/>
      <point x="206" y="730" type="line"/>
      <point x="339" y="730" type="line"/>
      <point x="331" y="523" type="line"/>
      <point x="510" y="530" type="line"/>
      <point x="510" y="415" type="line"/>
      <point x="331" y="422" type="line"/>
      <point x="336" y="269" type="line"/>
      <point x="331" y="118" type="line"/>
      <point x="510" y="125" type="line"/>
      <point x="510" y="11" type="line"/>
    </contour>
  </outline>
</glyph>
<glyph name="bullet" format="1">
  <advance width="366"/>
  <unicode hex="2022"/>
  <outline>
    <contour>
      <point x="117" y="505"/>
      <point x="55" y="458"/>
      <point x="53" y="379" type="curve" smooth="yes"/>
      <point x="53" y="378"/>
      <point x="53" y="359"/>
      <point x="53" y="358" type="curve" smooth="yes"/>
      <point x="53" y="291"/>
      <point x="104" y="230"/>
      <point x="185" y="230" type="curve" smooth="yes"/>
      <point x="258" y="230"/>
      <point x="315" y="286"/>
      <point x="315" y="358" type="curve" smooth="yes"/>
      <point x="315" y="359"/>
      <point x="315" y="378"/>
      <point x="315" y="378" type="curve" smooth="yes"/>
      <point x="314" y="451"/>
      <point x="257" y="505"/>
      <point x="184" y="505" type="curve" smooth="yes"/>
    </contour>
  </outline>
</glyph>
<glyph name="ellipsis" format="1">
  <advance width="902"/>
  <unicode hex="2026"/>
  <outline>
    <contour>
      <point x="0" y="10" type="line"/>
      <point x="0" y="0" type="line"/>
      <point x="902" y="0" type="line"/>
      <point x="902" y="10" type="line"/>
    </contour>
  </outline>
</glyph>
<glyph name="guilsinglleft" format="1">
  <advance width="377"/>
  <unicode hex="2039"/>
  <outline>
    <contour>
      <point x="0" y="10" type="line"/>
      <point x="0" y="0" type="line"/>
      <point x="377" y="0" type="line"/>
      <point x="377" y="10" type="line"/>
    </contour>
  </outline>
</glyph>
<glyph name="guilsinglright" format="1">
  <advance width="373"/>
  <unicode hex="203A"/>
  <outline>
    <contour>
      <point x="0" y="10" type="line"/>
      <point x="0" y="0" type="line"/>
      <point x="373" y="0" type="line"/>
      <point x="373" y="10" type="line"/>
    </contour>
  </outline>
</glyph>
<glyph name="fraction" format="1">
  <advance width="240"/>
  <unicode hex="2044"/>
  <outline>
    <contour>
      <point x="-111" y="21" type="line"/>
      <point x="-14" y="6" type="line"/>
      <point x="345" y="665" type="line"/>
      <point x="247" y="680" type="line"/>
    </contour>
  </outline>
</glyph>
<glyph name="foursuperior" format="1">
  <advance width="455"/>
  <unicode hex="2074"/>
  <outline>
    <contour>
      <point x="255" y="721" type="line"/>
      <point x="26" y="417" type="line"/>
      <point x="28" y="356" type="line"/>
      <point x="257" y="356" type="line"/>
      <point x="257" y="273" type="line"/>
      <point x="365" y="273" type="line"/>
      <point x="365" y="356" type="line"/>
      <point x="419" y="356" type="line"/>
      <point x="419" y="439" type="line"/>
      <point x="365" y="439" type="line"/>
      <point x="365" y="721" type="line"/>
    </contour>
    <contour>
      <point x="257" y="584" type="line"/>
      <point x="257" y="439" type="line"/>
      <point x="144" y="439" type="line"/>
      <point x="254" y="585" type="line"/>
    </contour>
  </outline>
</glyph>
<glyph name="Euro" format="1">
  <advance width="593"/>
  <unicode hex="20AC"/>
  <outline>
    <contour>
      <point x="497" y="532" type="line"/>
      <point x="463" y="567"/>
      <point x="432" y="588"/>
      <point x="368" y="588" type="curve" smooth="yes"/>
      <point x="283" y="588"/>
      <point x="239" y="541"/>
      <point x="227" y="466" type="curve"/>
      <point x="463" y="466" type="line"/>
      <point x="451" y="371" type="line"/>
      <point x="219" y="371" type="line"/>
      <point x="219" y="314" type="line"/>
      <point x="445" y="314" type="line"/>
      <point x="434" y="219" type="line"/>
      <point x="226" y="219" type="line"/>
      <point x="239" y="146"/>
      <point x="282" y="102"/>
      <point x="368" y="102" type="curve" smooth="yes"/>
      <point x="420" y="102"/>
      <point x="460" y="117"/>
      <point x="500" y="163" type="curve"/>
      <point x="566" y="75" type="line"/>
      <point x="516" y="18"/>
      <point x="469" y="-12"/>
      <point x="366" y="-12" type="curve" smooth="yes"/>
      <point x="204" y="-12"/>
      <point x="102" y="75"/>
      <point x="83" y="219" type="curve"/>
      <point x="20" y="219" type="line"/>
      <point x="31" y="314" type="line"/>
      <point x="77" y="314" type="line"/>
      <point x="77" y="371" type="line"/>
      <point x="20" y="371" type="line"/>
      <point x="33" y="466" type="line"/>
      <point x="83" y="466" type="line"/>
      <point x="102" y="613"/>
      <point x="203" y="702"/>
      <point x="363" y="702" type="curve" smooth="yes"/>
      <point x="455" y="702"/>
      <point x="518" y="673"/>
      <point x="560" y="624" type="curve"/>
    </contour>
  </outline>
</glyph>
<glyph name="estimated" format="1">
  <advance width="667"/>
  <unicode hex="212E"/>
  <outline>
    <contour>
      <point x="188" y="588"/>
      <point x="57" y="467"/>
      <point x="57" y="289" type="curve" smooth="yes"/>
      <point x="57" y="131"/>
      <point x="164" y="-11"/>
      <point x="337" y="-11" type="curve" smooth="yes"/>
      <point x="436" y="-11"/>
      <point x="505" y="26"/>
      <point x="567" y="104" type="curve"/>
      <point x="545" y="138" type="line"/>
      <point x="495" y="75"/>
      <point x="433" y="30"/>
      <point x="337" y="30" type="curve" smooth="yes"/>
      <point x="276" y="30"/>
      <point x="225" y="53"/>
      <point x="184" y="93" type="curve"/>
      <point x="184" y="283" type="line"/>
      <point x="615" y="283" type="line"/>
      <point x="615" y="287"/>
      <point x="615" y="301"/>
      <point x="614" y="305" type="curve" smooth="yes"/>
      <point x="608" y="462"/>
      <point x="504" y="588"/>
      <point x="338" y="588" type="curve" smooth="yes"/>
    </contour>
    <contour>
      <point x="401" y="547"/>
      <point x="456" y="517"/>
      <point x="490" y="484" type="curve"/>
      <point x="490" y="325" type="line"/>
      <point x="184" y="325" type="line"/>
      <point x="184" y="483" type="line"/>
      <point x="224" y="522"/>
      <point x="275" y="547"/>
      <point x="338" y="547" type="curve" smooth="yes"/>
    </contour>
  </outline>
</glyph>
<glyph name="partialdiff" format="1">
  <advance width="618"/>
  <unicode hex="2202"/>
  <outline>
    <contour>
      <point x="272" y="733"/>
      <point x="230" y="724"/>
      <point x="205" y="710" type="curve"/>
      <point x="205" y="609" type="line"/>
      <point x="229" y="620"/>
      <point x="255" y="624"/>
      <point x="282" y="623" type="curve" smooth="yes"/>
      <point x="367" y="611"/>
      <point x="422" y="551"/>
      <point x="429" y="463" type="curve" smooth="yes"/>
      <point x="430" y="448"/>
      <point x="429" y="436"/>
      <point x="428" y="428" type="curve"/>
      <point x="426" y="427" type="line"/>
      <point x="401" y="461"/>
      <point x="350" y="484"/>
      <point x="290" y="484" type="curve" smooth="yes"/>
      <point x="152" y="484"/>
      <point x="39" y="379"/>
      <point x="39" y="208" type="curve" smooth="yes"/>
      <point x="39" y="81"/>
      <point x="136" y="-11"/>
      <point x="270" y="-11" type="curve" smooth="yes"/>
      <point x="435" y="-11"/>
      <point x="569" y="156"/>
      <point x="572" y="373" type="curve" smooth="yes"/>
      <point x="572" y="375"/>
      <point x="572" y="421"/>
      <point x="572" y="423" type="curve" smooth="yes"/>
      <point x="572" y="596"/>
      <point x="471" y="713"/>
      <point x="313" y="732" type="curve" smooth="yes"/>
    </contour>
    <contour>
      <point x="369" y="386"/>
      <point x="405" y="360"/>
      <point x="422" y="325" type="curve"/>
      <point x="415" y="284"/>
      <point x="402" y="227"/>
      <point x="384" y="200" type="curve" smooth="yes"/>
      <point x="366" y="140"/>
      <point x="328" y="95"/>
      <point x="274" y="95" type="curve" smooth="yes"/>
      <point x="214" y="95"/>
      <point x="178" y="143"/>
      <point x="178" y="205" type="curve" smooth="yes"/>
      <point x="178" y="294"/>
      <point x="220" y="386"/>
      <point x="316" y="386" type="curve" smooth="yes"/>
    </contour>
  </outline>
</glyph>
<glyph name="product" format="1">
  <advance width="748"/>
  <unicode hex="220F"/>
  <outline>
    <contour>
      <point x="79" y="704" type="line"/>
      <point x="79" y="-186" type="line"/>
      <point x="209" y="-186" type="line"/>
      <point x="209" y="589" type="line"/>
      <point x="542" y="589" type="line"/>
      <point x="542" y="-186" type="line"/>
      <point x="671" y="-186" type="line"/>
      <point x="671" y="704" type="line"/>
    </contour>
  </outline>
</glyph>
<glyph name="summation" format="1">
  <advance width="663"/>
  <unicode hex="2211"/>
  <outline>
    <contour>
      <point x="43" y="704" type="line"/>
      <point x="43" y="627" type="line"/>
      <point x="333" y="261" type="line"/>
      <point x="32" y="-117" type="line"/>
      <point x="32" y="-190" type="line"/>
      <point x="633" y="-190" type="line"/>
      <point x="633" y="-79" type="line"/>
      <point x="219" y="-79" type="line"/>
      <point x="469" y="239" type="line"/>
      <point x="468" y="286" type="line"/>
      <point x="229" y="593" type="line"/>
      <point x="614" y="593" type="line"/>
      <point x="614" y="704" type="line"/>
    </contour>
  </outline>
</glyph>
<glyph name="minus" format="1">
  <advance width="640"/>
  <unicode hex="2212"/>
  <outline>
    <contour>
      <point x="67" y="362" type="line"/>
      <point x="67" y="258" type="line"/>
      <point x="571" y="258" type="line"/>
      <point x="571" y="362" type="line"/>
    </contour>
  </outline>
</glyph>
<glyph name="bulletoperator" format="1">
  <advance width="266"/>
  <unicode hex="2219"/>
  <outline>
    <contour>
      <point x="81" y="366"/>
      <point x="55" y="341"/>
      <point x="55" y="292" type="curve" smooth="yes"/>
      <point x="55" y="242"/>
      <point x="79" y="219"/>
      <point x="132" y="219" type="curve" smooth="yes"/>
      <point x="184" y="219"/>
      <point x="211" y="238"/>
      <point x="211" y="292" type="curve" smooth="yes"/>
      <point x="211" y="341"/>
      <point x="185" y="366"/>
      <point x="132" y="366" type="curve" smooth="yes"/>
    </contour>
  </outline>
</glyph>
<glyph name="radical" format="1">
  <advance width="575"/>
  <unicode hex="221A"/>
  <outline>
    <contour>
      <point x="460" y="722" type="line"/>
      <point x="297" y="126" type="line"/>
      <point x="292" y="125" type="line"/>
      <point x="189" y="403" type="line"/>
      <point x="22" y="344" type="line"/>
      <point x="46" y="260" type="line"/>
      <point x="124" y="282" type="line"/>
      <point x="243" y="-7" type="line"/>
      <point x="349" y="-7" type="line"/>
      <point x="557" y="722" type="line"/>
    </contour>
  </outline>
</glyph>
<glyph name="infinity" format="1">
  <advance width="934"/>
  <unicode hex="221E"/>
  <outline>
    <contour>
      <point x="581" y="500"/>
      <point x="512" y="445"/>
      <point x="470" y="378" type="curve"/>
      <point x="469" y="376"/>
      <point x="466" y="376"/>
      <point x="465" y="378" type="curve"/>
      <point x="421" y="445"/>
      <point x="355" y="500"/>
      <point x="261" y="500" type="curve" smooth="yes"/>
      <point x="136" y="500"/>
      <point x="49" y="413"/>
      <point x="47" y="290" type="curve" smooth="yes"/>
      <point x="47" y="288"/>
      <point x="47" y="276"/>
      <point x="47" y="275" type="curve" smooth="yes"/>
      <point x="47" y="148"/>
      <point x="134" y="60"/>
      <point x="263" y="60" type="curve" smooth="yes"/>
      <point x="354" y="60"/>
      <point x="422" y="117"/>
      <point x="465" y="184" type="curve"/>
      <point x="467" y="186"/>
      <point x="469" y="187"/>
      <point x="470" y="184" type="curve"/>
      <point x="513" y="115"/>
      <point x="581" y="60"/>
      <point x="673" y="60" type="curve" smooth="yes"/>
      <point x="801" y="60"/>
      <point x="888" y="150"/>
      <point x="888" y="276" type="curve" smooth="yes"/>
      <point x="888" y="278"/>
      <point x="888" y="290"/>
      <point x="888" y="292" type="curve" smooth="yes"/>
      <point x="885" y="414"/>
      <point x="797" y="500"/>
      <point x="673" y="500" type="curve" smooth="yes"/>
    </contour>
    <contour>
      <point x="336" y="401"/>
      <point x="386" y="333"/>
      <point x="407" y="286" type="curve" smooth="yes"/>
      <point x="407" y="285"/>
      <point x="408" y="279"/>
      <point x="407" y="278" type="curve" smooth="yes"/>
      <point x="387" y="231"/>
      <point x="337" y="159"/>
      <point x="268" y="159" type="curve" smooth="yes"/>
      <point x="203" y="159"/>
      <point x="166" y="209"/>
      <point x="166" y="275" type="curve" smooth="yes"/>
      <point x="166" y="275"/>
      <point x="166" y="286"/>
      <point x="166" y="287" type="curve" smooth="yes"/>
      <point x="167" y="351"/>
      <point x="202" y="401"/>
      <point x="266" y="401" type="curve" smooth="yes"/>
    </contour>
    <contour>
      <point x="733" y="401"/>
      <point x="768" y="351"/>
      <point x="769" y="287" type="curve" smooth="yes"/>
      <point x="769" y="287"/>
      <point x="769" y="276"/>
      <point x="769" y="275" type="curve" smooth="yes"/>
      <point x="769" y="210"/>
      <point x="734" y="159"/>
      <point x="668" y="159" type="curve" smooth="yes"/>
      <point x="605" y="159"/>
      <point x="554" y="219"/>
      <point x="528" y="277" type="curve" smooth="yes"/>
      <point x="528" y="279"/>
      <point x="528" y="285"/>
      <point x="529" y="287" type="curve" smooth="yes"/>
      <point x="556" y="344"/>
      <point x="605" y="401"/>
      <point x="668" y="401" type="curve" smooth="yes"/>
    </contour>
  </outline>
</glyph>
<glyph name="integral" format="1">
  <advance width="428"/>
  <unicode hex="222B"/>
  <outline>
    <contour>
      <point x="211" y="759"/>
      <point x="144" y="685"/>
      <point x="144" y="561" type="curve"/>
      <point x="144" y="-36" type="line" smooth="yes"/>
      <point x="144" y="-86"/>
      <point x="124" y="-121"/>
      <point x="77" y="-121" type="curve" smooth="yes"/>
      <point x="60" y="-121"/>
      <point x="43" y="-118"/>
      <point x="29" y="-113" type="curve"/>
      <point x="11" y="-215" type="line"/>
      <point x="32" y="-222"/>
      <point x="68" y="-227"/>
      <point x="96" y="-227" type="curve" smooth="yes"/>
      <point x="220" y="-227"/>
      <point x="285" y="-151"/>
      <point x="285" y="-27" type="curve"/>
      <point x="285" y="570" type="line" smooth="yes"/>
      <point x="285" y="621"/>
      <point x="308" y="652"/>
      <point x="357" y="652" type="curve" smooth="yes"/>
      <point x="373" y="652"/>
      <point x="386" y="650"/>
      <point x="405" y="644" type="curve"/>
      <point x="426" y="744" type="line"/>
      <point x="403" y="752"/>
      <point x="368" y="759"/>
      <point x="336" y="759" type="curve" smooth="yes"/>
    </contour>
  </outline>
</glyph>
<glyph name="approxequal" format="1">
  <advance width="648"/>
  <unicode hex="2248"/>
  <outline>
    <contour>
      <point x="158" y="483"/>
      <point x="107" y="454"/>
      <point x="61" y="412" type="curve"/>
      <point x="63" y="308" type="line"/>
      <point x="111" y="348"/>
      <point x="157" y="376"/>
      <point x="200" y="376" type="curve" smooth="yes"/>
      <point x="290" y="376"/>
      <point x="350" y="306"/>
      <point x="443" y="306" type="curve" smooth="yes"/>
      <point x="493" y="306"/>
      <point x="542" y="334"/>
      <point x="589" y="377" type="curve"/>
      <point x="587" y="481" type="line"/>
      <point x="543" y="443"/>
      <point x="493" y="413"/>
      <point x="450" y="413" type="curve" smooth="yes"/>
      <point x="354" y="413"/>
      <point x="301" y="483"/>
      <point x="209" y="483" type="curve" smooth="yes"/>
    </contour>
    <contour>
      <point x="156" y="261"/>
      <point x="105" y="233"/>
      <point x="59" y="190" type="curve"/>
      <point x="61" y="86" type="line"/>
      <point x="109" y="126"/>
      <point x="155" y="154"/>
      <point x="198" y="154" type="curve" smooth="yes"/>
      <point x="289" y="154"/>
      <point x="348" y="84"/>
      <point x="441" y="84" type="curve" smooth="yes"/>
      <point x="491" y="84"/>
      <point x="540" y="113"/>
      <point x="587" y="155" type="curve"/>
      <point x="585" y="259" type="line"/>
      <point x="541" y="221"/>
      <point x="492" y="191"/>
      <point x="448" y="191" type="curve" smooth="yes"/>
      <point x="356" y="191"/>
      <point x="298" y="261"/>
      <point x="208" y="261" type="curve" smooth="yes"/>
    </contour>
  </outline>
</glyph>
<glyph name="notequal" format="1">
  <advance width="638"/>
  <unicode hex="2260"/>
  <outline>
    <contour>
      <point x="350" y="466" type="line"/>
      <point x="65" y="466" type="line"/>
      <point x="65" y="362" type="line"/>
      <point x="295" y="362" type="line"/>
      <point x="230" y="238" type="line"/>
      <point x="65" y="238" type="line"/>
      <point x="65" y="133" type="line"/>
      <point x="175" y="133" type="line"/>
      <point x="119" y="22" type="line"/>
      <point x="210" y="8" type="line"/>
      <point x="274" y="133" type="line"/>
      <point x="581" y="133" type="line"/>
      <point x="581" y="238" type="line"/>
      <point x="329" y="238" type="line"/>
      <point x="393" y="362" type="line"/>
      <point x="581" y="362" type="line"/>
      <point x="581" y="466" type="line"/>
      <point x="449" y="466" type="line"/>
      <point x="526" y="615" type="line"/>
      <point x="434" y="628" type="line"/>
    </contour>
  </outline>
</glyph>
<glyph name="lessequal" format="1">
  <advance width="634"/>
  <unicode hex="2264"/>
  <outline>
    <contour>
      <point x="0" y="10" type="line"/>
      <point x="0" y="0" type="line"/>
      <point x="634" y="0" type="line"/>
      <point x="634" y="10" type="line"/>
    </contour>
  </outline>
</glyph>
<glyph name="lozenge" format="1">
  <advance width="569"/>
  <unicode hex="25CA"/>
  <outline>
    <contour>
      <point x="0" y="10" type="line"/>
      <point x="0" y="0" type="line"/>
      <point x="569" y="0" type="line"/>
      <point x="569" y="10" type="line"/>
    </contour>
  </outline>
</glyph>
<glyph name="caron.alt" format="1">
  <advance width="509"/>
  <outline>
    <contour>
      <point x="278" y="727" type="line"/>
      <point x="251" y="551" type="line"/>
      <point x="329" y="551" type="line"/>
      <point x="410" y="727" type="line"/>
    </contour>
  </outline>
</glyph>
